<?xml version="1.0" encoding="utf-8" standalone="no"?>
<!DOCTYPE svg PUBLIC "-//W3C//DTD SVG 1.1//EN"
  "http://www.w3.org/Graphics/SVG/1.1/DTD/svg11.dtd">
<svg xmlns:xlink="http://www.w3.org/1999/xlink" width="720pt" height="576pt" viewBox="0 0 720 576" xmlns="http://www.w3.org/2000/svg" version="1.1">
 <metadata>
  <rdf:RDF xmlns:dc="http://purl.org/dc/elements/1.1/" xmlns:cc="http://creativecommons.org/ns#" xmlns:rdf="http://www.w3.org/1999/02/22-rdf-syntax-ns#">
   <cc:Work>
    <dc:type rdf:resource="http://purl.org/dc/dcmitype/StillImage"/>
    <dc:date>2025-07-13T23:41:58.221942</dc:date>
    <dc:format>image/svg+xml</dc:format>
    <dc:creator>
     <cc:Agent>
      <dc:title>Matplotlib v3.10.0, https://matplotlib.org/</dc:title>
     </cc:Agent>
    </dc:creator>
   </cc:Work>
  </rdf:RDF>
 </metadata>
 <defs>
  <style type="text/css">*{stroke-linejoin: round; stroke-linecap: butt}</style>
 </defs>
 <g id="figure_1">
  <g id="patch_1">
   <path d="M 0 576 
L 720 576 
L 720 0 
L 0 0 
z
" style="fill: #ffffff"/>
  </g>
  <g id="axes_1">
   <g id="patch_2">
    <path d="M 90 512.64 
L 648 512.64 
L 648 69.12 
L 90 69.12 
z
" style="fill: #ffffff"/>
   </g>
   <g id="patch_3">
    <path d="M 525.696643 363.091221 
Q 434.118175 238.836344 343.327626 115.650527 
" clip-path="url(#pb666f69967)" style="fill: none; stroke: #ff0000; stroke-width: 1.187841; stroke-linecap: round"/>
    <path d="M 344.090822 120.05706 
L 343.327626 115.650527 
L 347.31077 117.68389 
z
" clip-path="url(#pb666f69967)" style="fill: #ff0000; stroke: #ff0000; stroke-width: 1.187841; stroke-linecap: round"/>
   </g>
   <g id="patch_4">
    <path d="M 526.773519 377.715826 
Q 503.20915 422.109821 479.942128 465.943629 
" clip-path="url(#pb666f69967)" style="fill: none; stroke: #ff0000; stroke-width: 0.567257; stroke-linecap: round"/>
    <path d="M 483.584072 463.3482 
L 479.942128 465.943629 
L 480.050951 461.472817 
z
" clip-path="url(#pb666f69967)" style="fill: #ff0000; stroke: #ff0000; stroke-width: 0.567257; stroke-linecap: round"/>
   </g>
   <g id="patch_5">
    <path d="M 524.308096 364.367002 
Q 470.447708 317.361721 417.04861 270.759019 
" clip-path="url(#pb666f69967)" style="fill: none; stroke: #ff0000; stroke-width: 0.547618; stroke-linecap: round"/>
    <path d="M 418.747247 274.896002 
L 417.04861 270.759019 
L 421.377379 271.8823 
z
" clip-path="url(#pb666f69967)" style="fill: #ff0000; stroke: #ff0000; stroke-width: 0.547618; stroke-linecap: round"/>
   </g>
   <g id="patch_6">
    <path d="M 523.467857 365.50886 
Q 353.906976 260.685005 184.831665 156.161333 
" clip-path="url(#pb666f69967)" style="fill: none; stroke: #ff0000; stroke-width: 0.510597; stroke-linecap: round"/>
    <path d="M 187.182328 159.965854 
L 184.831665 156.161333 
L 189.28568 156.563515 
z
" clip-path="url(#pb666f69967)" style="fill: #ff0000; stroke: #ff0000; stroke-width: 0.510597; stroke-linecap: round"/>
   </g>
   <g id="patch_7">
    <path d="M 534.798256 362.359621 
Q 565.208482 303.241772 595.429871 244.491026 
" clip-path="url(#pb666f69967)" style="fill: none; stroke: #008000; stroke-width: 0.36924; stroke-linecap: round"/>
    <path d="M 591.821665 247.133155 
L 595.429871 244.491026 
L 595.37865 248.962868 
z
" clip-path="url(#pb666f69967)" style="fill: #008000; stroke: #008000; stroke-width: 0.36924; stroke-linecap: round"/>
   </g>
   <g id="patch_8">
    <path d="M 528.168706 361.823127 
Q 488.437258 239.047154 449.032908 117.28196 
" clip-path="url(#pb666f69967)" style="fill: none; stroke: #008000; stroke-width: 0.950229; stroke-linecap: round"/>
    <path d="M 448.36162 121.703427 
L 449.032908 117.28196 
L 452.167309 120.47187 
z
" clip-path="url(#pb666f69967)" style="fill: #008000; stroke: #008000; stroke-width: 0.950229; stroke-linecap: round"/>
   </g>
   <g id="patch_9">
    <path d="M 342.538307 114.579568 
Q 434.116775 238.834445 525.114436 362.301274 
" clip-path="url(#pb666f69967)" style="fill: none; stroke: #ff0000; stroke-width: 0.875606; stroke-linecap: round"/>
    <path d="M 524.35124 357.894741 
L 525.114436 362.301274 
L 521.131292 360.26791 
z
" clip-path="url(#pb666f69967)" style="fill: #ff0000; stroke: #ff0000; stroke-width: 0.875606; stroke-linecap: round"/>
   </g>
   <g id="patch_10">
    <path d="M 341.035247 115.465358 
Q 373.731194 186.133924 406.012874 255.907101 
" clip-path="url(#pb666f69967)" style="fill: none; stroke: #ff0000; stroke-width: 0.882423; stroke-linecap: round"/>
    <path d="M 406.148406 251.437019 
L 406.012874 255.907101 
L 402.518128 253.116626 
z
" clip-path="url(#pb666f69967)" style="fill: #ff0000; stroke: #ff0000; stroke-width: 0.882423; stroke-linecap: round"/>
   </g>
   <g id="patch_11">
    <path d="M 329.502514 111.163349 
Q 237.911269 152.40721 146.985438 193.351434 
" clip-path="url(#pb666f69967)" style="fill: none; stroke: #ff0000; stroke-width: 0.652722; stroke-linecap: round"/>
    <path d="M 151.453899 193.532691 
L 146.985438 193.351434 
L 149.81152 189.885419 
z
" clip-path="url(#pb666f69967)" style="fill: #ff0000; stroke: #ff0000; stroke-width: 0.652722; stroke-linecap: round"/>
   </g>
   <g id="patch_12">
    <path d="M 329.045137 109.883054 
Q 257.190847 129.456435 185.702942 148.93001 
" clip-path="url(#pb666f69967)" style="fill: none; stroke: #ff0000; stroke-width: 0.339647; stroke-linecap: round"/>
    <path d="M 190.087968 149.808389 
L 185.702942 148.93001 
L 189.03666 145.949017 
z
" clip-path="url(#pb666f69967)" style="fill: #ff0000; stroke: #ff0000; stroke-width: 0.339647; stroke-linecap: round"/>
   </g>
   <g id="patch_13">
    <path d="M 345.172614 111.426469 
Q 468.487814 172.01604 591.114274 232.267207 
" clip-path="url(#pb666f69967)" style="fill: none; stroke: #ff0000; stroke-width: 0.686371; stroke-linecap: round"/>
    <path d="M 588.406183 228.70824 
L 591.114274 232.267207 
L 586.642246 232.2983 
z
" clip-path="url(#pb666f69967)" style="fill: #ff0000; stroke: #ff0000; stroke-width: 0.686371; stroke-linecap: round"/>
   </g>
   <g id="patch_14">
    <path d="M 333.503012 115.339789 
Q 247.324515 286.356195 161.496946 456.676204 
" clip-path="url(#pb666f69967)" style="fill: none; stroke: #ff0000; stroke-width: 0.697492; stroke-linecap: round"/>
    <path d="M 165.083037 454.004136 
L 161.496946 456.676204 
L 161.510946 452.20409 
z
" clip-path="url(#pb666f69967)" style="fill: #ff0000; stroke: #ff0000; stroke-width: 0.697492; stroke-linecap: round"/>
   </g>
   <g id="patch_15">
    <path d="M 346.062853 107.641329 
Q 391.720582 107.820815 435.970738 107.994768 
" clip-path="url(#pb666f69967)" style="fill: none; stroke: #ff0000; stroke-width: 1.25898; stroke-linecap: round"/>
    <path d="M 431.978631 105.979059 
L 435.970738 107.994768 
L 431.962907 109.979028 
z
" clip-path="url(#pb666f69967)" style="fill: #ff0000; stroke: #ff0000; stroke-width: 1.25898; stroke-linecap: round"/>
   </g>
   <g id="patch_16">
    <path d="M 406.428508 256.805448 
Q 373.732562 186.136882 341.219422 115.863431 
" clip-path="url(#pb666f69967)" style="fill: none; stroke: #008000; stroke-width: 0.389394; stroke-linecap: round"/>
    <path d="M 341.083889 120.333513 
L 341.219422 115.863431 
L 344.714168 118.653906 
z
" clip-path="url(#pb666f69967)" style="fill: #008000; stroke: #008000; stroke-width: 0.389394; stroke-linecap: round"/>
   </g>
   <g id="patch_17">
    <path d="M 416.591454 270.360047 
Q 470.451841 317.365328 523.622117 363.768331 
" clip-path="url(#pb666f69967)" style="fill: none; stroke: #008000; stroke-width: 0.819264; stroke-linecap: round"/>
    <path d="M 521.92348 359.631347 
L 523.622117 363.768331 
L 519.293348 362.64505 
z
" clip-path="url(#pb666f69967)" style="fill: #008000; stroke: #008000; stroke-width: 0.819264; stroke-linecap: round"/>
   </g>
   <g id="patch_18">
    <path d="M 401.662387 262.577157 
Q 274.245453 230.936323 147.647279 199.498807 
" clip-path="url(#pb666f69967)" style="fill: none; stroke: #008000; stroke-width: 0.754563; stroke-linecap: round"/>
    <path d="M 151.047363 202.403877 
L 147.647279 199.498807 
L 152.011385 198.521782 
z
" clip-path="url(#pb666f69967)" style="fill: #008000; stroke: #008000; stroke-width: 0.754563; stroke-linecap: round"/>
   </g>
   <g id="patch_19">
    <path d="M 402.278774 260.877241 
Q 293.52203 207.985335 185.580656 155.48997 
" clip-path="url(#pb666f69967)" style="fill: none; stroke: #ff0000; stroke-width: 0.810961; stroke-linecap: round"/>
    <path d="M 188.303108 159.037964 
L 185.580656 155.48997 
L 190.052522 155.440805 
z
" clip-path="url(#pb666f69967)" style="fill: #ff0000; stroke: #ff0000; stroke-width: 0.810961; stroke-linecap: round"/>
   </g>
   <g id="patch_20">
    <path d="M 418.63246 263.386864 
Q 504.821767 250.544712 590.16432 237.828726 
" clip-path="url(#pb666f69967)" style="fill: none; stroke: #008000; stroke-width: 0.765721; stroke-linecap: round"/>
    <path d="M 585.913251 236.440054 
L 590.16432 237.828726 
L 586.50274 240.396378 
z
" clip-path="url(#pb666f69967)" style="fill: #008000; stroke: #008000; stroke-width: 0.765721; stroke-linecap: round"/>
   </g>
   <g id="patch_21">
    <path d="M 403.278529 270.043522 
Q 283.654959 364.886858 164.446499 459.401074 
" clip-path="url(#pb666f69967)" style="fill: none; stroke: #008000; stroke-width: 0.473824; stroke-linecap: round"/>
    <path d="M 168.823423 458.483177 
L 164.446499 459.401074 
L 166.338335 455.348797 
z
" clip-path="url(#pb666f69967)" style="fill: #008000; stroke: #008000; stroke-width: 0.473824; stroke-linecap: round"/>
   </g>
   <g id="patch_22">
    <path d="M 412.001978 256.226933 
Q 428.051448 186.352377 443.773745 117.902234 
" clip-path="url(#pb666f69967)" style="fill: none; stroke: #008000; stroke-width: 1.307209; stroke-linecap: round"/>
    <path d="M 440.92906 121.352998 
L 443.773745 117.902234 
L 444.827545 122.24844 
z
" clip-path="url(#pb666f69967)" style="fill: #008000; stroke: #008000; stroke-width: 1.307209; stroke-linecap: round"/>
   </g>
   <g id="patch_23">
    <path d="M 146.318552 193.651735 
Q 237.909797 152.407873 328.710041 111.520202 
" clip-path="url(#pb666f69967)" style="fill: none; stroke: #008000; stroke-width: 0.775914; stroke-linecap: round"/>
    <path d="M 324.24158 111.338946 
L 328.710041 111.520202 
L 325.883959 114.986217 
z
" clip-path="url(#pb666f69967)" style="fill: #008000; stroke: #008000; stroke-width: 0.775914; stroke-linecap: round"/>
   </g>
   <g id="patch_24">
    <path d="M 146.823278 199.294187 
Q 274.240212 230.935021 401.272917 262.480442 
" clip-path="url(#pb666f69967)" style="fill: none; stroke: #ff0000; stroke-width: 0.354102; stroke-linecap: round"/>
    <path d="M 397.872833 259.575372 
L 401.272917 262.480442 
L 396.908811 263.457467 
z
" clip-path="url(#pb666f69967)" style="fill: #ff0000; stroke: #ff0000; stroke-width: 0.354102; stroke-linecap: round"/>
   </g>
   <g id="patch_25">
    <path d="M 143.99185 190.576444 
Q 157.699775 174.257527 170.865669 158.583883 
" clip-path="url(#pb666f69967)" style="fill: none; stroke: #ff0000; stroke-width: 0.753752; stroke-linecap: round"/>
    <path d="M 166.761489 160.360314 
L 170.865669 158.583883 
L 169.824305 162.933086 
z
" clip-path="url(#pb666f69967)" style="fill: #ff0000; stroke: #ff0000; stroke-width: 0.753752; stroke-linecap: round"/>
   </g>
   <g id="patch_26">
    <path d="M 147.051997 197.941776 
Q 369.001352 216.817029 590.138843 235.623239 
" clip-path="url(#pb666f69967)" style="fill: none; stroke: #ff0000; stroke-width: 0.728774; stroke-linecap: round"/>
    <path d="M 586.322704 233.291483 
L 590.138843 235.623239 
L 585.983756 237.277097 
z
" clip-path="url(#pb666f69967)" style="fill: #ff0000; stroke: #ff0000; stroke-width: 0.728774; stroke-linecap: round"/>
   </g>
   <g id="patch_27">
    <path d="M 146.743755 194.795327 
Q 292.233861 152.620221 437.087373 110.629653 
" clip-path="url(#pb666f69967)" style="fill: none; stroke: #008000; stroke-width: 0.592827; stroke-linecap: round"/>
    <path d="M 432.688695 109.822417 
L 437.087373 110.629653 
L 433.802378 113.664254 
z
" clip-path="url(#pb666f69967)" style="fill: #008000; stroke: #008000; stroke-width: 0.592827; stroke-linecap: round"/>
   </g>
   <g id="patch_28">
    <path d="M 185.333094 149.030758 
Q 257.187385 129.457378 328.236766 110.103257 
" clip-path="url(#pb666f69967)" style="fill: none; stroke: #ff0000; stroke-width: 0.746166; stroke-linecap: round"/>
    <path d="M 323.85174 109.224879 
L 328.236766 110.103257 
L 324.903048 113.084251 
z
" clip-path="url(#pb666f69967)" style="fill: #ff0000; stroke: #ff0000; stroke-width: 0.746166; stroke-linecap: round"/>
   </g>
   <g id="patch_29">
    <path d="M 182.858646 157.663855 
Q 326.281519 312.729446 468.47179 466.462374 
" clip-path="url(#pb666f69967)" style="fill: none; stroke: #ff0000; stroke-width: 1.623651; stroke-linecap: round"/>
    <path d="M 467.224012 462.167836 
L 468.47179 466.462374 
L 464.287493 464.883874 
z
" clip-path="url(#pb666f69967)" style="fill: #ff0000; stroke: #ff0000; stroke-width: 1.623651; stroke-linecap: round"/>
   </g>
   <g id="patch_30">
    <path d="M 184.346169 155.861195 
Q 353.907049 260.68505 521.974373 364.585577 
" clip-path="url(#pb666f69967)" style="fill: none; stroke: #ff0000; stroke-width: 1.570541; stroke-linecap: round"/>
    <path d="M 519.62371 360.781055 
L 521.974373 364.585577 
L 517.520358 364.183394 
z
" clip-path="url(#pb666f69967)" style="fill: #ff0000; stroke: #ff0000; stroke-width: 1.570541; stroke-linecap: round"/>
   </g>
   <g id="patch_31">
    <path d="M 184.764057 155.092832 
Q 293.520801 207.984737 401.677444 260.584795 
" clip-path="url(#pb666f69967)" style="fill: none; stroke: #ff0000; stroke-width: 0.596856; stroke-linecap: round"/>
    <path d="M 398.954992 257.036801 
L 401.677444 260.584795 
L 397.205578 260.63396 
z
" clip-path="url(#pb666f69967)" style="fill: #ff0000; stroke: #ff0000; stroke-width: 0.596856; stroke-linecap: round"/>
   </g>
   <g id="patch_32">
    <path d="M 171.408292 157.937906 
Q 157.700366 174.256824 145.002945 189.372762 
" clip-path="url(#pb666f69967)" style="fill: none; stroke: #ff0000; stroke-width: 1.405213; stroke-linecap: round"/>
    <path d="M 149.107126 187.596332 
L 145.002945 189.372762 
L 146.044309 185.02356 
z
" clip-path="url(#pb666f69967)" style="fill: #ff0000; stroke: #ff0000; stroke-width: 1.405213; stroke-linecap: round"/>
   </g>
   <g id="patch_33">
    <path d="M 184.304853 155.926619 
Q 287.455763 220.97609 390.040195 285.668327 
" clip-path="url(#pb666f69967)" style="fill: none; stroke: #ff0000; stroke-width: 0.599007; stroke-linecap: round"/>
    <path d="M 387.723614 281.842958 
L 390.040195 285.668327 
L 385.589951 285.226371 
z
" clip-path="url(#pb666f69967)" style="fill: #ff0000; stroke: #ff0000; stroke-width: 0.599007; stroke-linecap: round"/>
   </g>
   <g id="patch_34">
    <path d="M 185.467922 153.016436 
Q 388.278546 193.866271 589.396099 234.37509 
" clip-path="url(#pb666f69967)" style="fill: none; stroke: #ff0000; stroke-width: 1.544741; stroke-linecap: round"/>
    <path d="M 585.869756 231.624652 
L 589.396099 234.37509 
L 585.079943 235.545902 
z
" clip-path="url(#pb666f69967)" style="fill: #ff0000; stroke: #ff0000; stroke-width: 1.544741; stroke-linecap: round"/>
   </g>
   <g id="patch_35">
    <path d="M 176.435221 159.949313 
Q 167.113291 308.205551 157.919141 454.429562 
" clip-path="url(#pb666f69967)" style="fill: none; stroke: #ff0000; stroke-width: 1.821268; stroke-linecap: round"/>
    <path d="M 160.166212 450.562952 
L 157.919141 454.429562 
L 156.174096 450.311939 
z
" clip-path="url(#pb666f69967)" style="fill: #ff0000; stroke: #ff0000; stroke-width: 1.821268; stroke-linecap: round"/>
   </g>
   <g id="patch_36">
    <path d="M 185.530524 149.931174 
Q 311.510229 129.670325 436.767612 109.525644 
" clip-path="url(#pb666f69967)" style="fill: none; stroke: #ff0000; stroke-width: 0.654367; stroke-linecap: round"/>
    <path d="M 432.500788 108.186162 
L 436.767612 109.525644 
L 433.135931 112.135414 
z
" clip-path="url(#pb666f69967)" style="fill: #ff0000; stroke: #ff0000; stroke-width: 0.654367; stroke-linecap: round"/>
   </g>
   <g id="patch_37">
    <path d="M 395.212901 282.424982 
Q 367.666091 199.128089 340.411651 116.715271 
" clip-path="url(#pb666f69967)" style="fill: none; stroke: #008000; stroke-width: 0.832859; stroke-linecap: round"/>
    <path d="M 339.768721 121.14095 
L 340.411651 116.715271 
L 343.566437 119.885022 
z
" clip-path="url(#pb666f69967)" style="fill: #008000; stroke: #008000; stroke-width: 0.832859; stroke-linecap: round"/>
   </g>
   <g id="patch_38">
    <path d="M 401.306948 298.622087 
Q 436.758791 382.400631 472.030934 465.754517 
" clip-path="url(#pb666f69967)" style="fill: none; stroke: #008000; stroke-width: 0.412433; stroke-linecap: round"/>
    <path d="M 472.313989 461.291348 
L 472.030934 465.754517 
L 468.630232 462.850171 
z
" clip-path="url(#pb666f69967)" style="fill: #008000; stroke: #008000; stroke-width: 0.412433; stroke-linecap: round"/>
   </g>
   <g id="patch_39">
    <path d="M 405.365661 295.087162 
Q 464.384441 330.354741 522.547532 365.110989 
" clip-path="url(#pb666f69967)" style="fill: none; stroke: #008000; stroke-width: 0.891589; stroke-linecap: round"/>
    <path d="M 520.139794 361.342329 
L 522.547532 365.110989 
L 518.087961 364.775984 
z
" clip-path="url(#pb666f69967)" style="fill: #008000; stroke: #008000; stroke-width: 0.891589; stroke-linecap: round"/>
   </g>
   <g id="patch_40">
    <path d="M 389.785854 287.711837 
Q 268.178907 243.927117 147.390141 200.436985 
" clip-path="url(#pb666f69967)" style="fill: none; stroke: #008000; stroke-width: 0.777794; stroke-linecap: round"/>
    <path d="M 150.476105 203.673777 
L 147.390141 200.436985 
L 151.831153 199.910289 
z
" clip-path="url(#pb666f69967)" style="fill: #008000; stroke: #008000; stroke-width: 0.777794; stroke-linecap: round"/>
   </g>
   <g id="patch_41">
    <path d="M 390.604971 286.024488 
Q 287.454061 220.975017 185.510649 156.687023 
" clip-path="url(#pb666f69967)" style="fill: none; stroke: #ff0000; stroke-width: 1.276838; stroke-linecap: round"/>
    <path d="M 187.827231 160.512392 
L 185.510649 156.687023 
L 189.960893 157.128979 
z
" clip-path="url(#pb666f69967)" style="fill: #ff0000; stroke: #ff0000; stroke-width: 1.276838; stroke-linecap: round"/>
   </g>
   <g id="patch_42">
    <path d="M 406.297246 288.395113 
Q 498.757334 263.534622 590.400225 238.893857 
" clip-path="url(#pb666f69967)" style="fill: none; stroke: #008000; stroke-width: 0.756884; stroke-linecap: round"/>
    <path d="M 586.018109 238.001079 
L 590.400225 238.893857 
L 587.056732 241.863883 
z
" clip-path="url(#pb666f69967)" style="fill: #008000; stroke: #008000; stroke-width: 0.756884; stroke-linecap: round"/>
   </g>
   <g id="patch_43">
    <path d="M 390.920294 295.726537 
Q 277.590711 377.875674 165.426866 459.179805 
" clip-path="url(#pb666f69967)" style="fill: none; stroke: #008000; stroke-width: 1.287782; stroke-linecap: round"/>
    <path d="M 169.839305 458.451533 
L 165.426866 459.179805 
L 167.491713 455.212891 
z
" clip-path="url(#pb666f69967)" style="fill: #008000; stroke: #008000; stroke-width: 1.287782; stroke-linecap: round"/>
   </g>
   <g id="patch_44">
    <path d="M 404.892135 285.491612 
Q 468.922682 238.092071 532.607087 190.948767 
" clip-path="url(#pb666f69967)" style="fill: none; stroke: #008000; stroke-width: 0.385197; stroke-linecap: round"/>
    <path d="M 528.202165 191.721208 
L 532.607087 190.948767 
L 530.582087 194.936169 
z
" clip-path="url(#pb666f69967)" style="fill: #008000; stroke: #008000; stroke-width: 0.385197; stroke-linecap: round"/>
   </g>
   <g id="patch_45">
    <path d="M 400.137102 282.271403 
Q 421.985876 199.338917 443.306615 118.410723 
" clip-path="url(#pb666f69967)" style="fill: none; stroke: #008000; stroke-width: 1.853863; stroke-linecap: round"/>
    <path d="M 440.353567 121.769221 
L 443.306615 118.410723 
L 444.221585 122.78826 
z
" clip-path="url(#pb666f69967)" style="fill: #008000; stroke: #008000; stroke-width: 1.853863; stroke-linecap: round"/>
   </g>
   <g id="patch_46">
    <path d="M 591.805477 232.606821 
Q 468.490276 172.01725 345.843338 111.756022 
" clip-path="url(#pb666f69967)" style="fill: none; stroke: #008000; stroke-width: 0.665963; stroke-linecap: round"/>
    <path d="M 348.551429 115.314988 
L 345.843338 111.756022 
L 350.315366 111.724928 
z
" clip-path="url(#pb666f69967)" style="fill: #008000; stroke: #008000; stroke-width: 0.665963; stroke-linecap: round"/>
   </g>
   <g id="patch_47">
    <path d="M 595.615628 244.129912 
Q 565.205402 303.247761 534.988915 361.988977 
" clip-path="url(#pb666f69967)" style="fill: none; stroke: #008000; stroke-width: 0.378826; stroke-linecap: round"/>
    <path d="M 538.597122 359.346848 
L 534.988915 361.988977 
L 535.040136 357.517134 
z
" clip-path="url(#pb666f69967)" style="fill: #008000; stroke: #008000; stroke-width: 0.378826; stroke-linecap: round"/>
   </g>
   <g id="patch_48">
    <path d="M 591.089244 234.71612 
Q 388.27862 193.866286 185.876237 153.098678 
" clip-path="url(#pb666f69967)" style="fill: none; stroke: #ff0000; stroke-width: 0.372474; stroke-linecap: round"/>
    <path d="M 189.40258 155.849116 
L 185.876237 153.098678 
L 190.192392 151.927866 
z
" clip-path="url(#pb666f69967)" style="fill: #ff0000; stroke: #ff0000; stroke-width: 0.372474; stroke-linecap: round"/>
   </g>
   <g id="patch_49">
    <path d="M 161.144236 457.376137 
Q 247.322733 286.359731 332.883364 116.569446 
" clip-path="url(#pb666f69967)" style="fill: none; stroke: #ff0000; stroke-width: 1.228048; stroke-linecap: round"/>
    <path d="M 329.297273 119.241514 
L 332.883364 116.569446 
L 332.869364 121.04156 
z
" clip-path="url(#pb666f69967)" style="fill: #ff0000; stroke: #ff0000; stroke-width: 1.228048; stroke-linecap: round"/>
   </g>
   <g id="patch_50">
    <path d="M 165.908482 465.35471 
Q 316.415884 469.630681 465.139838 473.855984 
" clip-path="url(#pb666f69967)" style="fill: none; stroke: #008000; stroke-width: 1.595808; stroke-linecap: round"/>
    <path d="M 461.198249 471.743195 
L 465.139838 473.855984 
L 461.084653 475.741582 
z
" clip-path="url(#pb666f69967)" style="fill: #008000; stroke: #008000; stroke-width: 1.595808; stroke-linecap: round"/>
   </g>
   <g id="patch_51">
    <path d="M 165.64165 462.973125 
Q 344.04109 417.586194 521.116479 372.536117 
" clip-path="url(#pb666f69967)" style="fill: none; stroke: #ff0000; stroke-width: 1.221992; stroke-linecap: round"/>
    <path d="M 516.746852 371.584091 
L 521.116479 372.536117 
L 517.733082 375.460604 
z
" clip-path="url(#pb666f69967)" style="fill: #ff0000; stroke: #ff0000; stroke-width: 1.221992; stroke-linecap: round"/>
   </g>
   <g id="patch_52">
    <path d="M 164.033318 459.728664 
Q 283.656889 364.885328 402.05979 271.009797 
" clip-path="url(#pb666f69967)" style="fill: none; stroke: #ff0000; stroke-width: 1.393321; stroke-linecap: round"/>
    <path d="M 397.682866 271.927695 
L 402.05979 271.009797 
L 400.167954 275.062075 
z
" clip-path="url(#pb666f69967)" style="fill: #ff0000; stroke: #ff0000; stroke-width: 1.393321; stroke-linecap: round"/>
   </g>
   <g id="patch_53">
    <path d="M 156.64068 456.471042 
Q 147.834524 331.157447 139.128839 207.273579 
" clip-path="url(#pb666f69967)" style="fill: none; stroke: #ff0000; stroke-width: 1.28194; stroke-linecap: round"/>
    <path d="M 137.414159 211.403939 
L 139.128839 207.273579 
L 141.404319 211.123539 
z
" clip-path="url(#pb666f69967)" style="fill: #ff0000; stroke: #ff0000; stroke-width: 1.28194; stroke-linecap: round"/>
   </g>
   <g id="patch_54">
    <path d="M 157.791103 456.465879 
Q 167.113033 308.209642 176.14901 164.501223 
" clip-path="url(#pb666f69967)" style="fill: none; stroke: #008000; stroke-width: 4.075726; stroke-linecap: round"/>
    <path d="M 173.901939 168.367832 
L 176.14901 164.501223 
L 177.894055 168.618845 
z
" clip-path="url(#pb666f69967)" style="fill: #008000; stroke: #008000; stroke-width: 4.075726; stroke-linecap: round"/>
   </g>
   <g id="patch_55">
    <path d="M 164.258547 460.026684 
Q 277.588129 377.877546 390.094023 296.325475 
" clip-path="url(#pb666f69967)" style="fill: none; stroke: #ff0000; stroke-width: 0.909923; stroke-linecap: round"/>
    <path d="M 385.681584 297.053747 
L 390.094023 296.325475 
L 388.029176 300.292389 
z
" clip-path="url(#pb666f69967)" style="fill: #ff0000; stroke: #ff0000; stroke-width: 0.909923; stroke-linecap: round"/>
   </g>
   <g id="patch_56">
    <path d="M 164.938649 461.132459 
Q 378.413633 350.767055 589.540368 241.615683 
" clip-path="url(#pb666f69967)" style="fill: none; stroke: #ff0000; stroke-width: 2.364428; stroke-linecap: round"/>
    <path d="M 585.06864 241.676069 
L 589.540368 241.615683 
L 586.90564 245.229297 
z
" clip-path="url(#pb666f69967)" style="fill: #ff0000; stroke: #ff0000; stroke-width: 2.364428; stroke-linecap: round"/>
   </g>
   <g id="patch_57">
    <path d="M 164.239919 460.000245 
Q 348.582126 325.323238 527.250414 194.791491 
" clip-path="url(#pb666f69967)" style="fill: none; stroke: #ff0000; stroke-width: 6.285001; stroke-linecap: round"/>
    <path d="M 522.840725 195.536235 
L 527.250414 194.791491 
L 525.200396 198.766089 
z
" clip-path="url(#pb666f69967)" style="fill: #ff0000; stroke: #ff0000; stroke-width: 6.285001; stroke-linecap: round"/>
   </g>
   <g id="patch_58">
    <path d="M 162.692056 458.377005 
Q 301.64342 286.572199 438.518281 117.334861 
" clip-path="url(#pb666f69967)" style="fill: none; stroke: #ff0000; stroke-width: 2.953473; stroke-linecap: round"/>
    <path d="M 434.447837 119.187287 
L 438.518281 117.334861 
L 437.557955 121.702672 
z
" clip-path="url(#pb666f69967)" style="fill: #ff0000; stroke: #ff0000; stroke-width: 2.953473; stroke-linecap: round"/>
   </g>
   <g id="patch_59">
    <path d="M 437.377021 108.000296 
Q 391.719293 107.82081 346.462166 107.642899 
" clip-path="url(#pb666f69967)" style="fill: none; stroke: #ff0000; stroke-width: 0.358312; stroke-linecap: round"/>
    <path d="M 350.454273 109.658608 
L 346.462166 107.642899 
L 350.469997 105.658639 
z
" clip-path="url(#pb666f69967)" style="fill: #ff0000; stroke: #ff0000; stroke-width: 0.358312; stroke-linecap: round"/>
   </g>
   <g id="patch_60">
    <path d="M 444.102496 116.470953 
Q 428.053025 186.345509 412.194646 255.388114 
" clip-path="url(#pb666f69967)" style="fill: none; stroke: #008000; stroke-width: 0.763497; stroke-linecap: round"/>
    <path d="M 415.039331 251.93735 
L 412.194646 255.388114 
L 411.140846 251.041908 
z
" clip-path="url(#pb666f69967)" style="fill: #008000; stroke: #008000; stroke-width: 0.763497; stroke-linecap: round"/>
   </g>
   <g id="patch_61">
    <path d="M 437.488425 109.409718 
Q 311.508721 129.670568 187.340481 149.640085 
" clip-path="url(#pb666f69967)" style="fill: none; stroke: #008000; stroke-width: 1.641044; stroke-linecap: round"/>
    <path d="M 191.607305 150.979568 
L 187.340481 149.640085 
L 190.972161 147.030316 
z
" clip-path="url(#pb666f69967)" style="fill: #008000; stroke: #008000; stroke-width: 1.641044; stroke-linecap: round"/>
   </g>
   <g id="patch_62">
    <path d="M 443.834365 116.407517 
Q 421.98559 199.340004 400.278864 281.733309 
" clip-path="url(#pb666f69967)" style="fill: none; stroke: #ff0000; stroke-width: 0.498714; stroke-linecap: round"/>
    <path d="M 403.231912 278.374811 
L 400.278864 281.733309 
L 399.363894 277.355772 
z
" clip-path="url(#pb666f69967)" style="fill: #ff0000; stroke: #ff0000; stroke-width: 0.498714; stroke-linecap: round"/>
   </g>
   <g id="patch_63">
    <path d="M 440.59591 114.766001 
Q 301.644546 286.570807 163.6733 457.163757 
" clip-path="url(#pb666f69967)" style="fill: none; stroke: #ff0000; stroke-width: 1.394051; stroke-linecap: round"/>
    <path d="M 167.743744 455.311331 
L 163.6733 457.163757 
L 164.633626 452.795946 
z
" clip-path="url(#pb666f69967)" style="fill: #ff0000; stroke: #ff0000; stroke-width: 1.394051; stroke-linecap: round"/>
   </g>
   <g id="patch_64">
    <path d="M 452.718207 113.547762 
Q 492.978302 146.787261 532.726306 179.603967 
" clip-path="url(#pb666f69967)" style="fill: none; stroke: #ff0000; stroke-width: 0.593964; stroke-linecap: round"/>
    <path d="M 530.915085 175.515021 
L 532.726306 179.603967 
L 528.368417 178.599577 
z
" clip-path="url(#pb666f69967)" style="fill: #ff0000; stroke: #ff0000; stroke-width: 0.593964; stroke-linecap: round"/>
   </g>
   <g id="patch_65">
    <path d="M 479.646585 466.500417 
Q 503.210954 422.106422 526.493389 378.243576 
" clip-path="url(#pb666f69967)" style="fill: none; stroke: #ff0000; stroke-width: 0.537852; stroke-linecap: round"/>
    <path d="M 522.851446 380.839004 
L 526.493389 378.243576 
L 526.384566 382.714387 
z
" clip-path="url(#pb666f69967)" style="fill: #ff0000; stroke: #ff0000; stroke-width: 0.537852; stroke-linecap: round"/>
   </g>
   <g id="patch_66">
    <path d="M 473.000341 465.889642 
Q 442.824383 369.4079 412.876721 273.656093 
" clip-path="url(#pb666f69967)" style="fill: none; stroke: #008000; stroke-width: 0.68406; stroke-linecap: round"/>
    <path d="M 412.16192 278.070734 
L 412.876721 273.656093 
L 415.979554 276.876718 
z
" clip-path="url(#pb666f69967)" style="fill: #008000; stroke: #008000; stroke-width: 0.68406; stroke-linecap: round"/>
   </g>
   <g id="patch_67">
    <path d="M 468.894046 468.657017 
Q 307.0048 335.681657 145.686597 203.175351 
" clip-path="url(#pb666f69967)" style="fill: none; stroke: #ff0000; stroke-width: 0.66097; stroke-linecap: round"/>
    <path d="M 147.5081 207.259727 
L 145.686597 203.175351 
L 150.047 204.168774 
z
" clip-path="url(#pb666f69967)" style="fill: #ff0000; stroke: #ff0000; stroke-width: 0.66097; stroke-linecap: round"/>
   </g>
   <g id="patch_68">
    <path d="M 469.70474 467.795412 
Q 326.281867 312.729821 183.775513 158.655151 
" clip-path="url(#pb666f69967)" style="fill: none; stroke: #008000; stroke-width: 1.207289; stroke-linecap: round"/>
    <path d="M 185.023291 162.949688 
L 183.775513 158.655151 
L 187.959809 160.233651 
z
" clip-path="url(#pb666f69967)" style="fill: #008000; stroke: #008000; stroke-width: 1.207289; stroke-linecap: round"/>
   </g>
   <g id="patch_69">
    <path d="M 472.208954 466.175207 
Q 436.757112 382.396664 401.449448 298.958838 
" clip-path="url(#pb666f69967)" style="fill: none; stroke: #ff0000; stroke-width: 0.33091; stroke-linecap: round"/>
    <path d="M 401.166393 303.422007 
L 401.449448 298.958838 
L 404.850151 301.863183 
z
" clip-path="url(#pb666f69967)" style="fill: #ff0000; stroke: #ff0000; stroke-width: 0.33091; stroke-linecap: round"/>
   </g>
   <g id="patch_70">
    <path d="M 479.590085 466.473475 
Q 537.582234 355.2882 595.265266 244.695576 
" clip-path="url(#pb666f69967)" style="fill: none; stroke: #ff0000; stroke-width: 0.597855; stroke-linecap: round"/>
    <path d="M 591.642158 247.317233 
L 595.265266 244.695576 
L 595.188727 249.167057 
z
" clip-path="url(#pb666f69967)" style="fill: #ff0000; stroke: #ff0000; stroke-width: 0.597855; stroke-linecap: round"/>
   </g>
   <g id="patch_71">
    <path d="M 466.92392 473.90667 
Q 316.416518 469.630699 167.661572 465.404516 
" clip-path="url(#pb666f69967)" style="fill: none; stroke: #ff0000; stroke-width: 1.568076; stroke-linecap: round"/>
    <path d="M 171.603161 467.517305 
L 167.661572 465.404516 
L 171.716756 463.518918 
z
" clip-path="url(#pb666f69967)" style="fill: #ff0000; stroke: #ff0000; stroke-width: 1.568076; stroke-linecap: round"/>
   </g>
   <g id="patch_72">
    <path d="M 477.468424 465.701652 
Q 507.749777 329.846122 537.781797 195.109203 
" clip-path="url(#pb666f69967)" style="fill: none; stroke: #ff0000; stroke-width: 1.025069; stroke-linecap: round"/>
    <path d="M 534.959481 198.578285 
L 537.781797 195.109203 
L 538.863673 199.448506 
z
" clip-path="url(#pb666f69967)" style="fill: #ff0000; stroke: #ff0000; stroke-width: 1.025069; stroke-linecap: round"/>
   </g>
   <g id="patch_73">
    <path d="M 474.888002 465.518756 
Q 460.812442 291.092648 446.811995 117.597341 
" clip-path="url(#pb666f69967)" style="fill: none; stroke: #ff0000; stroke-width: 0.835239; stroke-linecap: round"/>
    <path d="M 445.140215 121.74525 
L 446.811995 117.597341 
L 449.127254 121.42351 
z
" clip-path="url(#pb666f69967)" style="fill: #ff0000; stroke: #ff0000; stroke-width: 0.835239; stroke-linecap: round"/>
   </g>
   <g id="patch_74">
    <path d="M 538.031237 193.990106 
Q 507.749885 329.845636 477.630207 464.975822 
" clip-path="url(#pb666f69967)" style="fill: none; stroke: #008000; stroke-width: 0.664688; stroke-linecap: round"/>
    <path d="M 480.452523 461.50674 
L 477.630207 464.975822 
L 476.548331 460.63652 
z
" clip-path="url(#pb666f69967)" style="fill: #008000; stroke: #008000; stroke-width: 0.664688; stroke-linecap: round"/>
   </g>
   <g id="patch_75">
    <path d="M 531.295082 184.725998 
Q 358.447152 168.422819 186.210438 152.17729 
" clip-path="url(#pb666f69967)" style="fill: none; stroke: #008000; stroke-width: 0.549115; stroke-linecap: round"/>
    <path d="M 190.004955 154.544069 
L 186.210438 152.17729 
L 190.380571 150.561744 
z
" clip-path="url(#pb666f69967)" style="fill: #008000; stroke: #008000; stroke-width: 0.549115; stroke-linecap: round"/>
   </g>
   <g id="patch_76">
    <path d="M 532.92268 190.647438 
Q 348.580473 325.324446 164.851934 459.553119 
" clip-path="url(#pb666f69967)" style="fill: none; stroke: #ff0000; stroke-width: 0.67976; stroke-linecap: round"/>
    <path d="M 169.261622 458.808374 
L 164.851934 459.553119 
L 166.901951 455.578521 
z
" clip-path="url(#pb666f69967)" style="fill: #ff0000; stroke: #ff0000; stroke-width: 0.67976; stroke-linecap: round"/>
   </g>
   <g id="matplotlib.axis_1">
    <g id="xtick_1"/>
    <g id="xtick_2"/>
    <g id="xtick_3"/>
    <g id="xtick_4"/>
    <g id="xtick_5"/>
    <g id="xtick_6"/>
    <g id="xtick_7"/>
    <g id="xtick_8"/>
   </g>
   <g id="matplotlib.axis_2">
    <g id="ytick_1"/>
    <g id="ytick_2"/>
    <g id="ytick_3"/>
    <g id="ytick_4"/>
    <g id="ytick_5"/>
    <g id="ytick_6"/>
    <g id="ytick_7"/>
    <g id="ytick_8"/>
   </g>
   <g id="PathCollection_1">
    <defs>
     <path id="mc43b4335ee" d="M 0 11.18034 
C 2.965061 11.18034 5.80908 10.002309 7.905694 7.905694 
C 10.002309 5.80908 11.18034 2.965061 11.18034 0 
C 11.18034 -2.965061 10.002309 -5.80908 7.905694 -7.905694 
C 5.80908 -10.002309 2.965061 -11.18034 0 -11.18034 
C -2.965061 -11.18034 -5.80908 -10.002309 -7.905694 -7.905694 
C -10.002309 -5.80908 -11.18034 -2.965061 -11.18034 0 
C -11.18034 2.965061 -10.002309 5.80908 -7.905694 7.905694 
C -5.80908 10.002309 -2.965061 11.18034 0 11.18034 
z
" style="stroke: #87ceeb"/>
    </defs>
    <g clip-path="url(#pb666f69967)">
     <use xlink:href="#mc43b4335ee" x="530.835372" y="370.063516" style="fill: #87ceeb; stroke: #87ceeb"/>
     <use xlink:href="#mc43b4335ee" x="337.399578" y="107.607273" style="fill: #87ceeb; stroke: #87ceeb"/>
     <use xlink:href="#mc43b4335ee" x="410.064177" y="264.663533" style="fill: #87ceeb; stroke: #87ceeb"/>
     <use xlink:href="#mc43b4335ee" x="138.421488" y="197.207811" style="fill: #87ceeb; stroke: #87ceeb"/>
     <use xlink:href="#mc43b4335ee" x="176.978654" y="151.30654" style="fill: #87ceeb; stroke: #87ceeb"/>
     <use xlink:href="#mc43b4335ee" x="397.93117" y="290.644568" style="fill: #87ceeb; stroke: #87ceeb"/>
     <use xlink:href="#mc43b4335ee" x="599.578512" y="236.426017" style="fill: #87ceeb; stroke: #87ceeb"/>
     <use xlink:href="#mc43b4335ee" x="157.24767" y="465.108653" style="fill: #87ceeb; stroke: #87ceeb"/>
     <use xlink:href="#mc43b4335ee" x="446.040296" y="108.034353" style="fill: #87ceeb; stroke: #87ceeb"/>
     <use xlink:href="#mc43b4335ee" x="475.584732" y="474.152727" style="fill: #87ceeb; stroke: #87ceeb"/>
     <use xlink:href="#mc43b4335ee" x="539.914929" y="185.53903" style="fill: #87ceeb; stroke: #87ceeb"/>
    </g>
   </g>
   <g id="patch_77">
    <path d="M 90 512.64 
L 90 69.12 
" style="fill: none; stroke: #000000; stroke-width: 0.8; stroke-linejoin: miter; stroke-linecap: square"/>
   </g>
   <g id="patch_78">
    <path d="M 648 512.64 
L 648 69.12 
" style="fill: none; stroke: #000000; stroke-width: 0.8; stroke-linejoin: miter; stroke-linecap: square"/>
   </g>
   <g id="patch_79">
    <path d="M 90 512.64 
L 648 512.64 
" style="fill: none; stroke: #000000; stroke-width: 0.8; stroke-linejoin: miter; stroke-linecap: square"/>
   </g>
   <g id="patch_80">
    <path d="M 90 69.12 
L 648 69.12 
" style="fill: none; stroke: #000000; stroke-width: 0.8; stroke-linejoin: miter; stroke-linecap: square"/>
   </g>
   <g id="text_1">
    <g clip-path="url(#pb666f69967)">
     <!-- Barnesiella -->
     <g transform="translate(508.739122 372.271016) scale(0.08 -0.08)">
      <defs>
       <path id="DejaVuSans-42" d="M 1259 2228 
L 1259 519 
L 2272 519 
Q 2781 519 3026 730 
Q 3272 941 3272 1375 
Q 3272 1813 3026 2020 
Q 2781 2228 2272 2228 
L 1259 2228 
z
M 1259 4147 
L 1259 2741 
L 2194 2741 
Q 2656 2741 2882 2914 
Q 3109 3088 3109 3444 
Q 3109 3797 2882 3972 
Q 2656 4147 2194 4147 
L 1259 4147 
z
M 628 4666 
L 2241 4666 
Q 2963 4666 3353 4366 
Q 3744 4066 3744 3513 
Q 3744 3084 3544 2831 
Q 3344 2578 2956 2516 
Q 3422 2416 3680 2098 
Q 3938 1781 3938 1306 
Q 3938 681 3513 340 
Q 3088 0 2303 0 
L 628 0 
L 628 4666 
z
" transform="scale(0.015625)"/>
       <path id="DejaVuSans-61" d="M 2194 1759 
Q 1497 1759 1228 1600 
Q 959 1441 959 1056 
Q 959 750 1161 570 
Q 1363 391 1709 391 
Q 2188 391 2477 730 
Q 2766 1069 2766 1631 
L 2766 1759 
L 2194 1759 
z
M 3341 1997 
L 3341 0 
L 2766 0 
L 2766 531 
Q 2569 213 2275 61 
Q 1981 -91 1556 -91 
Q 1019 -91 701 211 
Q 384 513 384 1019 
Q 384 1609 779 1909 
Q 1175 2209 1959 2209 
L 2766 2209 
L 2766 2266 
Q 2766 2663 2505 2880 
Q 2244 3097 1772 3097 
Q 1472 3097 1187 3025 
Q 903 2953 641 2809 
L 641 3341 
Q 956 3463 1253 3523 
Q 1550 3584 1831 3584 
Q 2591 3584 2966 3190 
Q 3341 2797 3341 1997 
z
" transform="scale(0.015625)"/>
       <path id="DejaVuSans-72" d="M 2631 2963 
Q 2534 3019 2420 3045 
Q 2306 3072 2169 3072 
Q 1681 3072 1420 2755 
Q 1159 2438 1159 1844 
L 1159 0 
L 581 0 
L 581 3500 
L 1159 3500 
L 1159 2956 
Q 1341 3275 1631 3429 
Q 1922 3584 2338 3584 
Q 2397 3584 2469 3576 
Q 2541 3569 2628 3553 
L 2631 2963 
z
" transform="scale(0.015625)"/>
       <path id="DejaVuSans-6e" d="M 3513 2113 
L 3513 0 
L 2938 0 
L 2938 2094 
Q 2938 2591 2744 2837 
Q 2550 3084 2163 3084 
Q 1697 3084 1428 2787 
Q 1159 2491 1159 1978 
L 1159 0 
L 581 0 
L 581 3500 
L 1159 3500 
L 1159 2956 
Q 1366 3272 1645 3428 
Q 1925 3584 2291 3584 
Q 2894 3584 3203 3211 
Q 3513 2838 3513 2113 
z
" transform="scale(0.015625)"/>
       <path id="DejaVuSans-65" d="M 3597 1894 
L 3597 1613 
L 953 1613 
Q 991 1019 1311 708 
Q 1631 397 2203 397 
Q 2534 397 2845 478 
Q 3156 559 3463 722 
L 3463 178 
Q 3153 47 2828 -22 
Q 2503 -91 2169 -91 
Q 1331 -91 842 396 
Q 353 884 353 1716 
Q 353 2575 817 3079 
Q 1281 3584 2069 3584 
Q 2775 3584 3186 3129 
Q 3597 2675 3597 1894 
z
M 3022 2063 
Q 3016 2534 2758 2815 
Q 2500 3097 2075 3097 
Q 1594 3097 1305 2825 
Q 1016 2553 972 2059 
L 3022 2063 
z
" transform="scale(0.015625)"/>
       <path id="DejaVuSans-73" d="M 2834 3397 
L 2834 2853 
Q 2591 2978 2328 3040 
Q 2066 3103 1784 3103 
Q 1356 3103 1142 2972 
Q 928 2841 928 2578 
Q 928 2378 1081 2264 
Q 1234 2150 1697 2047 
L 1894 2003 
Q 2506 1872 2764 1633 
Q 3022 1394 3022 966 
Q 3022 478 2636 193 
Q 2250 -91 1575 -91 
Q 1294 -91 989 -36 
Q 684 19 347 128 
L 347 722 
Q 666 556 975 473 
Q 1284 391 1588 391 
Q 1994 391 2212 530 
Q 2431 669 2431 922 
Q 2431 1156 2273 1281 
Q 2116 1406 1581 1522 
L 1381 1569 
Q 847 1681 609 1914 
Q 372 2147 372 2553 
Q 372 3047 722 3315 
Q 1072 3584 1716 3584 
Q 2034 3584 2315 3537 
Q 2597 3491 2834 3397 
z
" transform="scale(0.015625)"/>
       <path id="DejaVuSans-69" d="M 603 3500 
L 1178 3500 
L 1178 0 
L 603 0 
L 603 3500 
z
M 603 4863 
L 1178 4863 
L 1178 4134 
L 603 4134 
L 603 4863 
z
" transform="scale(0.015625)"/>
       <path id="DejaVuSans-6c" d="M 603 4863 
L 1178 4863 
L 1178 0 
L 603 0 
L 603 4863 
z
" transform="scale(0.015625)"/>
      </defs>
      <use xlink:href="#DejaVuSans-42"/>
      <use xlink:href="#DejaVuSans-61" transform="translate(68.603516 0)"/>
      <use xlink:href="#DejaVuSans-72" transform="translate(129.882812 0)"/>
      <use xlink:href="#DejaVuSans-6e" transform="translate(169.246094 0)"/>
      <use xlink:href="#DejaVuSans-65" transform="translate(232.625 0)"/>
      <use xlink:href="#DejaVuSans-73" transform="translate(294.148438 0)"/>
      <use xlink:href="#DejaVuSans-69" transform="translate(346.248047 0)"/>
      <use xlink:href="#DejaVuSans-65" transform="translate(374.03125 0)"/>
      <use xlink:href="#DejaVuSans-6c" transform="translate(435.554688 0)"/>
      <use xlink:href="#DejaVuSans-6c" transform="translate(463.337891 0)"/>
      <use xlink:href="#DejaVuSans-61" transform="translate(491.121094 0)"/>
     </g>
    </g>
   </g>
   <g id="text_2">
    <g clip-path="url(#pb666f69967)">
     <!-- und. Enterobacteriaceae -->
     <g transform="translate(288.154578 109.814773) scale(0.08 -0.08)">
      <defs>
       <path id="DejaVuSans-75" d="M 544 1381 
L 544 3500 
L 1119 3500 
L 1119 1403 
Q 1119 906 1312 657 
Q 1506 409 1894 409 
Q 2359 409 2629 706 
Q 2900 1003 2900 1516 
L 2900 3500 
L 3475 3500 
L 3475 0 
L 2900 0 
L 2900 538 
Q 2691 219 2414 64 
Q 2138 -91 1772 -91 
Q 1169 -91 856 284 
Q 544 659 544 1381 
z
M 1991 3584 
L 1991 3584 
z
" transform="scale(0.015625)"/>
       <path id="DejaVuSans-64" d="M 2906 2969 
L 2906 4863 
L 3481 4863 
L 3481 0 
L 2906 0 
L 2906 525 
Q 2725 213 2448 61 
Q 2172 -91 1784 -91 
Q 1150 -91 751 415 
Q 353 922 353 1747 
Q 353 2572 751 3078 
Q 1150 3584 1784 3584 
Q 2172 3584 2448 3432 
Q 2725 3281 2906 2969 
z
M 947 1747 
Q 947 1113 1208 752 
Q 1469 391 1925 391 
Q 2381 391 2643 752 
Q 2906 1113 2906 1747 
Q 2906 2381 2643 2742 
Q 2381 3103 1925 3103 
Q 1469 3103 1208 2742 
Q 947 2381 947 1747 
z
" transform="scale(0.015625)"/>
       <path id="DejaVuSans-2e" d="M 684 794 
L 1344 794 
L 1344 0 
L 684 0 
L 684 794 
z
" transform="scale(0.015625)"/>
       <path id="DejaVuSans-20" transform="scale(0.015625)"/>
       <path id="DejaVuSans-45" d="M 628 4666 
L 3578 4666 
L 3578 4134 
L 1259 4134 
L 1259 2753 
L 3481 2753 
L 3481 2222 
L 1259 2222 
L 1259 531 
L 3634 531 
L 3634 0 
L 628 0 
L 628 4666 
z
" transform="scale(0.015625)"/>
       <path id="DejaVuSans-74" d="M 1172 4494 
L 1172 3500 
L 2356 3500 
L 2356 3053 
L 1172 3053 
L 1172 1153 
Q 1172 725 1289 603 
Q 1406 481 1766 481 
L 2356 481 
L 2356 0 
L 1766 0 
Q 1100 0 847 248 
Q 594 497 594 1153 
L 594 3053 
L 172 3053 
L 172 3500 
L 594 3500 
L 594 4494 
L 1172 4494 
z
" transform="scale(0.015625)"/>
       <path id="DejaVuSans-6f" d="M 1959 3097 
Q 1497 3097 1228 2736 
Q 959 2375 959 1747 
Q 959 1119 1226 758 
Q 1494 397 1959 397 
Q 2419 397 2687 759 
Q 2956 1122 2956 1747 
Q 2956 2369 2687 2733 
Q 2419 3097 1959 3097 
z
M 1959 3584 
Q 2709 3584 3137 3096 
Q 3566 2609 3566 1747 
Q 3566 888 3137 398 
Q 2709 -91 1959 -91 
Q 1206 -91 779 398 
Q 353 888 353 1747 
Q 353 2609 779 3096 
Q 1206 3584 1959 3584 
z
" transform="scale(0.015625)"/>
       <path id="DejaVuSans-62" d="M 3116 1747 
Q 3116 2381 2855 2742 
Q 2594 3103 2138 3103 
Q 1681 3103 1420 2742 
Q 1159 2381 1159 1747 
Q 1159 1113 1420 752 
Q 1681 391 2138 391 
Q 2594 391 2855 752 
Q 3116 1113 3116 1747 
z
M 1159 2969 
Q 1341 3281 1617 3432 
Q 1894 3584 2278 3584 
Q 2916 3584 3314 3078 
Q 3713 2572 3713 1747 
Q 3713 922 3314 415 
Q 2916 -91 2278 -91 
Q 1894 -91 1617 61 
Q 1341 213 1159 525 
L 1159 0 
L 581 0 
L 581 4863 
L 1159 4863 
L 1159 2969 
z
" transform="scale(0.015625)"/>
       <path id="DejaVuSans-63" d="M 3122 3366 
L 3122 2828 
Q 2878 2963 2633 3030 
Q 2388 3097 2138 3097 
Q 1578 3097 1268 2742 
Q 959 2388 959 1747 
Q 959 1106 1268 751 
Q 1578 397 2138 397 
Q 2388 397 2633 464 
Q 2878 531 3122 666 
L 3122 134 
Q 2881 22 2623 -34 
Q 2366 -91 2075 -91 
Q 1284 -91 818 406 
Q 353 903 353 1747 
Q 353 2603 823 3093 
Q 1294 3584 2113 3584 
Q 2378 3584 2631 3529 
Q 2884 3475 3122 3366 
z
" transform="scale(0.015625)"/>
      </defs>
      <use xlink:href="#DejaVuSans-75"/>
      <use xlink:href="#DejaVuSans-6e" transform="translate(63.378906 0)"/>
      <use xlink:href="#DejaVuSans-64" transform="translate(126.757812 0)"/>
      <use xlink:href="#DejaVuSans-2e" transform="translate(190.234375 0)"/>
      <use xlink:href="#DejaVuSans-20" transform="translate(222.021484 0)"/>
      <use xlink:href="#DejaVuSans-45" transform="translate(253.808594 0)"/>
      <use xlink:href="#DejaVuSans-6e" transform="translate(316.992188 0)"/>
      <use xlink:href="#DejaVuSans-74" transform="translate(380.371094 0)"/>
      <use xlink:href="#DejaVuSans-65" transform="translate(419.580078 0)"/>
      <use xlink:href="#DejaVuSans-72" transform="translate(481.103516 0)"/>
      <use xlink:href="#DejaVuSans-6f" transform="translate(519.966797 0)"/>
      <use xlink:href="#DejaVuSans-62" transform="translate(581.148438 0)"/>
      <use xlink:href="#DejaVuSans-61" transform="translate(644.625 0)"/>
      <use xlink:href="#DejaVuSans-63" transform="translate(705.904297 0)"/>
      <use xlink:href="#DejaVuSans-74" transform="translate(760.884766 0)"/>
      <use xlink:href="#DejaVuSans-65" transform="translate(800.09375 0)"/>
      <use xlink:href="#DejaVuSans-72" transform="translate(861.617188 0)"/>
      <use xlink:href="#DejaVuSans-69" transform="translate(902.730469 0)"/>
      <use xlink:href="#DejaVuSans-61" transform="translate(930.513672 0)"/>
      <use xlink:href="#DejaVuSans-63" transform="translate(991.792969 0)"/>
      <use xlink:href="#DejaVuSans-65" transform="translate(1046.773438 0)"/>
      <use xlink:href="#DejaVuSans-61" transform="translate(1108.296875 0)"/>
      <use xlink:href="#DejaVuSans-65" transform="translate(1169.576172 0)"/>
     </g>
    </g>
   </g>
   <g id="text_3">
    <g clip-path="url(#pb666f69967)">
     <!-- und. uncl. Mollicutes -->
     <g transform="translate(368.909177 266.871033) scale(0.08 -0.08)">
      <defs>
       <path id="DejaVuSans-4d" d="M 628 4666 
L 1569 4666 
L 2759 1491 
L 3956 4666 
L 4897 4666 
L 4897 0 
L 4281 0 
L 4281 4097 
L 3078 897 
L 2444 897 
L 1241 4097 
L 1241 0 
L 628 0 
L 628 4666 
z
" transform="scale(0.015625)"/>
      </defs>
      <use xlink:href="#DejaVuSans-75"/>
      <use xlink:href="#DejaVuSans-6e" transform="translate(63.378906 0)"/>
      <use xlink:href="#DejaVuSans-64" transform="translate(126.757812 0)"/>
      <use xlink:href="#DejaVuSans-2e" transform="translate(190.234375 0)"/>
      <use xlink:href="#DejaVuSans-20" transform="translate(222.021484 0)"/>
      <use xlink:href="#DejaVuSans-75" transform="translate(253.808594 0)"/>
      <use xlink:href="#DejaVuSans-6e" transform="translate(317.1875 0)"/>
      <use xlink:href="#DejaVuSans-63" transform="translate(380.566406 0)"/>
      <use xlink:href="#DejaVuSans-6c" transform="translate(435.546875 0)"/>
      <use xlink:href="#DejaVuSans-2e" transform="translate(463.330078 0)"/>
      <use xlink:href="#DejaVuSans-20" transform="translate(495.117188 0)"/>
      <use xlink:href="#DejaVuSans-4d" transform="translate(526.904297 0)"/>
      <use xlink:href="#DejaVuSans-6f" transform="translate(613.183594 0)"/>
      <use xlink:href="#DejaVuSans-6c" transform="translate(674.365234 0)"/>
      <use xlink:href="#DejaVuSans-6c" transform="translate(702.148438 0)"/>
      <use xlink:href="#DejaVuSans-69" transform="translate(729.931641 0)"/>
      <use xlink:href="#DejaVuSans-63" transform="translate(757.714844 0)"/>
      <use xlink:href="#DejaVuSans-75" transform="translate(812.695312 0)"/>
      <use xlink:href="#DejaVuSans-74" transform="translate(876.074219 0)"/>
      <use xlink:href="#DejaVuSans-65" transform="translate(915.283203 0)"/>
      <use xlink:href="#DejaVuSans-73" transform="translate(976.806641 0)"/>
     </g>
    </g>
   </g>
   <g id="text_4">
    <g clip-path="url(#pb666f69967)">
     <!-- und. Lachnospiraceae -->
     <g transform="translate(94.469613 199.415311) scale(0.08 -0.08)">
      <defs>
       <path id="DejaVuSans-4c" d="M 628 4666 
L 1259 4666 
L 1259 531 
L 3531 531 
L 3531 0 
L 628 0 
L 628 4666 
z
" transform="scale(0.015625)"/>
       <path id="DejaVuSans-68" d="M 3513 2113 
L 3513 0 
L 2938 0 
L 2938 2094 
Q 2938 2591 2744 2837 
Q 2550 3084 2163 3084 
Q 1697 3084 1428 2787 
Q 1159 2491 1159 1978 
L 1159 0 
L 581 0 
L 581 4863 
L 1159 4863 
L 1159 2956 
Q 1366 3272 1645 3428 
Q 1925 3584 2291 3584 
Q 2894 3584 3203 3211 
Q 3513 2838 3513 2113 
z
" transform="scale(0.015625)"/>
       <path id="DejaVuSans-70" d="M 1159 525 
L 1159 -1331 
L 581 -1331 
L 581 3500 
L 1159 3500 
L 1159 2969 
Q 1341 3281 1617 3432 
Q 1894 3584 2278 3584 
Q 2916 3584 3314 3078 
Q 3713 2572 3713 1747 
Q 3713 922 3314 415 
Q 2916 -91 2278 -91 
Q 1894 -91 1617 61 
Q 1341 213 1159 525 
z
M 3116 1747 
Q 3116 2381 2855 2742 
Q 2594 3103 2138 3103 
Q 1681 3103 1420 2742 
Q 1159 2381 1159 1747 
Q 1159 1113 1420 752 
Q 1681 391 2138 391 
Q 2594 391 2855 752 
Q 3116 1113 3116 1747 
z
" transform="scale(0.015625)"/>
      </defs>
      <use xlink:href="#DejaVuSans-75"/>
      <use xlink:href="#DejaVuSans-6e" transform="translate(63.378906 0)"/>
      <use xlink:href="#DejaVuSans-64" transform="translate(126.757812 0)"/>
      <use xlink:href="#DejaVuSans-2e" transform="translate(190.234375 0)"/>
      <use xlink:href="#DejaVuSans-20" transform="translate(222.021484 0)"/>
      <use xlink:href="#DejaVuSans-4c" transform="translate(253.808594 0)"/>
      <use xlink:href="#DejaVuSans-61" transform="translate(309.521484 0)"/>
      <use xlink:href="#DejaVuSans-63" transform="translate(370.800781 0)"/>
      <use xlink:href="#DejaVuSans-68" transform="translate(425.78125 0)"/>
      <use xlink:href="#DejaVuSans-6e" transform="translate(489.160156 0)"/>
      <use xlink:href="#DejaVuSans-6f" transform="translate(552.539062 0)"/>
      <use xlink:href="#DejaVuSans-73" transform="translate(613.720703 0)"/>
      <use xlink:href="#DejaVuSans-70" transform="translate(665.820312 0)"/>
      <use xlink:href="#DejaVuSans-69" transform="translate(729.296875 0)"/>
      <use xlink:href="#DejaVuSans-72" transform="translate(757.080078 0)"/>
      <use xlink:href="#DejaVuSans-61" transform="translate(798.193359 0)"/>
      <use xlink:href="#DejaVuSans-63" transform="translate(859.472656 0)"/>
      <use xlink:href="#DejaVuSans-65" transform="translate(914.453125 0)"/>
      <use xlink:href="#DejaVuSans-61" transform="translate(975.976562 0)"/>
      <use xlink:href="#DejaVuSans-65" transform="translate(1037.255859 0)"/>
     </g>
    </g>
   </g>
   <g id="text_5">
    <g clip-path="url(#pb666f69967)">
     <!-- Akkermansia -->
     <g transform="translate(151.190529 153.51404) scale(0.08 -0.08)">
      <defs>
       <path id="DejaVuSans-41" d="M 2188 4044 
L 1331 1722 
L 3047 1722 
L 2188 4044 
z
M 1831 4666 
L 2547 4666 
L 4325 0 
L 3669 0 
L 3244 1197 
L 1141 1197 
L 716 0 
L 50 0 
L 1831 4666 
z
" transform="scale(0.015625)"/>
       <path id="DejaVuSans-6b" d="M 581 4863 
L 1159 4863 
L 1159 1991 
L 2875 3500 
L 3609 3500 
L 1753 1863 
L 3688 0 
L 2938 0 
L 1159 1709 
L 1159 0 
L 581 0 
L 581 4863 
z
" transform="scale(0.015625)"/>
       <path id="DejaVuSans-6d" d="M 3328 2828 
Q 3544 3216 3844 3400 
Q 4144 3584 4550 3584 
Q 5097 3584 5394 3201 
Q 5691 2819 5691 2113 
L 5691 0 
L 5113 0 
L 5113 2094 
Q 5113 2597 4934 2840 
Q 4756 3084 4391 3084 
Q 3944 3084 3684 2787 
Q 3425 2491 3425 1978 
L 3425 0 
L 2847 0 
L 2847 2094 
Q 2847 2600 2669 2842 
Q 2491 3084 2119 3084 
Q 1678 3084 1418 2786 
Q 1159 2488 1159 1978 
L 1159 0 
L 581 0 
L 581 3500 
L 1159 3500 
L 1159 2956 
Q 1356 3278 1631 3431 
Q 1906 3584 2284 3584 
Q 2666 3584 2933 3390 
Q 3200 3197 3328 2828 
z
" transform="scale(0.015625)"/>
      </defs>
      <use xlink:href="#DejaVuSans-41"/>
      <use xlink:href="#DejaVuSans-6b" transform="translate(68.408203 0)"/>
      <use xlink:href="#DejaVuSans-6b" transform="translate(126.318359 0)"/>
      <use xlink:href="#DejaVuSans-65" transform="translate(180.603516 0)"/>
      <use xlink:href="#DejaVuSans-72" transform="translate(242.126953 0)"/>
      <use xlink:href="#DejaVuSans-6d" transform="translate(281.490234 0)"/>
      <use xlink:href="#DejaVuSans-61" transform="translate(378.902344 0)"/>
      <use xlink:href="#DejaVuSans-6e" transform="translate(440.181641 0)"/>
      <use xlink:href="#DejaVuSans-73" transform="translate(503.560547 0)"/>
      <use xlink:href="#DejaVuSans-69" transform="translate(555.660156 0)"/>
      <use xlink:href="#DejaVuSans-61" transform="translate(583.443359 0)"/>
     </g>
    </g>
   </g>
   <g id="text_6">
    <g clip-path="url(#pb666f69967)">
     <!-- Clostridium_difficile -->
     <g transform="translate(358.62867 292.740818) scale(0.08 -0.08)">
      <defs>
       <path id="DejaVuSans-43" d="M 4122 4306 
L 4122 3641 
Q 3803 3938 3442 4084 
Q 3081 4231 2675 4231 
Q 1875 4231 1450 3742 
Q 1025 3253 1025 2328 
Q 1025 1406 1450 917 
Q 1875 428 2675 428 
Q 3081 428 3442 575 
Q 3803 722 4122 1019 
L 4122 359 
Q 3791 134 3420 21 
Q 3050 -91 2638 -91 
Q 1578 -91 968 557 
Q 359 1206 359 2328 
Q 359 3453 968 4101 
Q 1578 4750 2638 4750 
Q 3056 4750 3426 4639 
Q 3797 4528 4122 4306 
z
" transform="scale(0.015625)"/>
       <path id="DejaVuSans-5f" d="M 3263 -1063 
L 3263 -1509 
L -63 -1509 
L -63 -1063 
L 3263 -1063 
z
" transform="scale(0.015625)"/>
       <path id="DejaVuSans-66" d="M 2375 4863 
L 2375 4384 
L 1825 4384 
Q 1516 4384 1395 4259 
Q 1275 4134 1275 3809 
L 1275 3500 
L 2222 3500 
L 2222 3053 
L 1275 3053 
L 1275 0 
L 697 0 
L 697 3053 
L 147 3053 
L 147 3500 
L 697 3500 
L 697 3744 
Q 697 4328 969 4595 
Q 1241 4863 1831 4863 
L 2375 4863 
z
" transform="scale(0.015625)"/>
      </defs>
      <use xlink:href="#DejaVuSans-43"/>
      <use xlink:href="#DejaVuSans-6c" transform="translate(69.824219 0)"/>
      <use xlink:href="#DejaVuSans-6f" transform="translate(97.607422 0)"/>
      <use xlink:href="#DejaVuSans-73" transform="translate(158.789062 0)"/>
      <use xlink:href="#DejaVuSans-74" transform="translate(210.888672 0)"/>
      <use xlink:href="#DejaVuSans-72" transform="translate(250.097656 0)"/>
      <use xlink:href="#DejaVuSans-69" transform="translate(291.210938 0)"/>
      <use xlink:href="#DejaVuSans-64" transform="translate(318.994141 0)"/>
      <use xlink:href="#DejaVuSans-69" transform="translate(382.470703 0)"/>
      <use xlink:href="#DejaVuSans-75" transform="translate(410.253906 0)"/>
      <use xlink:href="#DejaVuSans-6d" transform="translate(473.632812 0)"/>
      <use xlink:href="#DejaVuSans-5f" transform="translate(571.044922 0)"/>
      <use xlink:href="#DejaVuSans-64" transform="translate(621.044922 0)"/>
      <use xlink:href="#DejaVuSans-69" transform="translate(684.521484 0)"/>
      <use xlink:href="#DejaVuSans-66" transform="translate(712.304688 0)"/>
      <use xlink:href="#DejaVuSans-66" transform="translate(747.509766 0)"/>
      <use xlink:href="#DejaVuSans-69" transform="translate(782.714844 0)"/>
      <use xlink:href="#DejaVuSans-63" transform="translate(810.498047 0)"/>
      <use xlink:href="#DejaVuSans-69" transform="translate(865.478516 0)"/>
      <use xlink:href="#DejaVuSans-6c" transform="translate(893.261719 0)"/>
      <use xlink:href="#DejaVuSans-65" transform="translate(921.044922 0)"/>
     </g>
    </g>
   </g>
   <g id="text_7">
    <g clip-path="url(#pb666f69967)">
     <!-- ucl. Lachnospiraceae -->
     <g transform="translate(557.390387 238.633517) scale(0.08 -0.08)">
      <use xlink:href="#DejaVuSans-75"/>
      <use xlink:href="#DejaVuSans-63" transform="translate(63.378906 0)"/>
      <use xlink:href="#DejaVuSans-6c" transform="translate(118.359375 0)"/>
      <use xlink:href="#DejaVuSans-2e" transform="translate(146.142578 0)"/>
      <use xlink:href="#DejaVuSans-20" transform="translate(177.929688 0)"/>
      <use xlink:href="#DejaVuSans-4c" transform="translate(209.716797 0)"/>
      <use xlink:href="#DejaVuSans-61" transform="translate(265.429688 0)"/>
      <use xlink:href="#DejaVuSans-63" transform="translate(326.708984 0)"/>
      <use xlink:href="#DejaVuSans-68" transform="translate(381.689453 0)"/>
      <use xlink:href="#DejaVuSans-6e" transform="translate(445.068359 0)"/>
      <use xlink:href="#DejaVuSans-6f" transform="translate(508.447266 0)"/>
      <use xlink:href="#DejaVuSans-73" transform="translate(569.628906 0)"/>
      <use xlink:href="#DejaVuSans-70" transform="translate(621.728516 0)"/>
      <use xlink:href="#DejaVuSans-69" transform="translate(685.205078 0)"/>
      <use xlink:href="#DejaVuSans-72" transform="translate(712.988281 0)"/>
      <use xlink:href="#DejaVuSans-61" transform="translate(754.101562 0)"/>
      <use xlink:href="#DejaVuSans-63" transform="translate(815.380859 0)"/>
      <use xlink:href="#DejaVuSans-65" transform="translate(870.361328 0)"/>
      <use xlink:href="#DejaVuSans-61" transform="translate(931.884766 0)"/>
      <use xlink:href="#DejaVuSans-65" transform="translate(993.164062 0)"/>
     </g>
    </g>
   </g>
   <g id="text_8">
    <g clip-path="url(#pb666f69967)">
     <!-- Coprobacillus -->
     <g transform="translate(130.323295 467.316153) scale(0.08 -0.08)">
      <use xlink:href="#DejaVuSans-43"/>
      <use xlink:href="#DejaVuSans-6f" transform="translate(69.824219 0)"/>
      <use xlink:href="#DejaVuSans-70" transform="translate(131.005859 0)"/>
      <use xlink:href="#DejaVuSans-72" transform="translate(194.482422 0)"/>
      <use xlink:href="#DejaVuSans-6f" transform="translate(233.345703 0)"/>
      <use xlink:href="#DejaVuSans-62" transform="translate(294.527344 0)"/>
      <use xlink:href="#DejaVuSans-61" transform="translate(358.003906 0)"/>
      <use xlink:href="#DejaVuSans-63" transform="translate(419.283203 0)"/>
      <use xlink:href="#DejaVuSans-69" transform="translate(474.263672 0)"/>
      <use xlink:href="#DejaVuSans-6c" transform="translate(502.046875 0)"/>
      <use xlink:href="#DejaVuSans-6c" transform="translate(529.830078 0)"/>
      <use xlink:href="#DejaVuSans-75" transform="translate(557.613281 0)"/>
      <use xlink:href="#DejaVuSans-73" transform="translate(620.992188 0)"/>
     </g>
    </g>
   </g>
   <g id="text_9">
    <g clip-path="url(#pb666f69967)">
     <!-- Other -->
     <g transform="translate(434.682796 110.241853) scale(0.08 -0.08)">
      <defs>
       <path id="DejaVuSans-4f" d="M 2522 4238 
Q 1834 4238 1429 3725 
Q 1025 3213 1025 2328 
Q 1025 1447 1429 934 
Q 1834 422 2522 422 
Q 3209 422 3611 934 
Q 4013 1447 4013 2328 
Q 4013 3213 3611 3725 
Q 3209 4238 2522 4238 
z
M 2522 4750 
Q 3503 4750 4090 4092 
Q 4678 3434 4678 2328 
Q 4678 1225 4090 567 
Q 3503 -91 2522 -91 
Q 1538 -91 948 565 
Q 359 1222 359 2328 
Q 359 3434 948 4092 
Q 1538 4750 2522 4750 
z
" transform="scale(0.015625)"/>
      </defs>
      <use xlink:href="#DejaVuSans-4f"/>
      <use xlink:href="#DejaVuSans-74" transform="translate(78.710938 0)"/>
      <use xlink:href="#DejaVuSans-68" transform="translate(117.919922 0)"/>
      <use xlink:href="#DejaVuSans-65" transform="translate(181.298828 0)"/>
      <use xlink:href="#DejaVuSans-72" transform="translate(242.822266 0)"/>
     </g>
    </g>
   </g>
   <g id="text_10">
    <g clip-path="url(#pb666f69967)">
     <!-- Blautia -->
     <g transform="translate(461.612232 476.360227) scale(0.08 -0.08)">
      <use xlink:href="#DejaVuSans-42"/>
      <use xlink:href="#DejaVuSans-6c" transform="translate(68.603516 0)"/>
      <use xlink:href="#DejaVuSans-61" transform="translate(96.386719 0)"/>
      <use xlink:href="#DejaVuSans-75" transform="translate(157.666016 0)"/>
      <use xlink:href="#DejaVuSans-74" transform="translate(221.044922 0)"/>
      <use xlink:href="#DejaVuSans-69" transform="translate(260.253906 0)"/>
      <use xlink:href="#DejaVuSans-61" transform="translate(288.037109 0)"/>
     </g>
    </g>
   </g>
   <g id="text_11">
    <g clip-path="url(#pb666f69967)">
     <!-- Enterococcus -->
     <g transform="translate(513.156804 187.74653) scale(0.08 -0.08)">
      <use xlink:href="#DejaVuSans-45"/>
      <use xlink:href="#DejaVuSans-6e" transform="translate(63.183594 0)"/>
      <use xlink:href="#DejaVuSans-74" transform="translate(126.5625 0)"/>
      <use xlink:href="#DejaVuSans-65" transform="translate(165.771484 0)"/>
      <use xlink:href="#DejaVuSans-72" transform="translate(227.294922 0)"/>
      <use xlink:href="#DejaVuSans-6f" transform="translate(266.158203 0)"/>
      <use xlink:href="#DejaVuSans-63" transform="translate(327.339844 0)"/>
      <use xlink:href="#DejaVuSans-6f" transform="translate(382.320312 0)"/>
      <use xlink:href="#DejaVuSans-63" transform="translate(443.501953 0)"/>
      <use xlink:href="#DejaVuSans-63" transform="translate(498.482422 0)"/>
      <use xlink:href="#DejaVuSans-75" transform="translate(553.462891 0)"/>
      <use xlink:href="#DejaVuSans-73" transform="translate(616.841797 0)"/>
     </g>
    </g>
   </g>
  </g>
 </g>
 <defs>
  <clipPath id="pb666f69967">
   <rect x="90" y="69.12" width="558" height="443.52"/>
  </clipPath>
 </defs>
</svg>
