<?xml version="1.0" encoding="utf-8" standalone="no"?>
<!DOCTYPE svg PUBLIC "-//W3C//DTD SVG 1.1//EN"
  "http://www.w3.org/Graphics/SVG/1.1/DTD/svg11.dtd">
<svg xmlns:xlink="http://www.w3.org/1999/xlink" width="572.4pt" height="457.92pt" viewBox="0 0 572.4 457.92" xmlns="http://www.w3.org/2000/svg" version="1.1">
 <metadata>
  <rdf:RDF xmlns:dc="http://purl.org/dc/elements/1.1/" xmlns:cc="http://creativecommons.org/ns#" xmlns:rdf="http://www.w3.org/1999/02/22-rdf-syntax-ns#">
   <cc:Work>
    <dc:type rdf:resource="http://purl.org/dc/dcmitype/StillImage"/>
    <dc:date>2025-07-13T21:19:50.206558</dc:date>
    <dc:format>image/svg+xml</dc:format>
    <dc:creator>
     <cc:Agent>
      <dc:title>Matplotlib v3.10.0, https://matplotlib.org/</dc:title>
     </cc:Agent>
    </dc:creator>
   </cc:Work>
  </rdf:RDF>
 </metadata>
 <defs>
  <style type="text/css">*{stroke-linejoin: round; stroke-linecap: butt}</style>
 </defs>
 <g id="figure_1">
  <g id="patch_1">
   <path d="M 0 457.92 
L 572.4 457.92 
L 572.4 0 
L 0 0 
z
" style="fill: #ffffff"/>
  </g>
  <g id="axes_1">
   <g id="patch_2">
    <path d="M 7.2 450.72 
L 565.2 450.72 
L 565.2 7.2 
L 7.2 7.2 
z
" style="fill: #ffffff"/>
   </g>
   <g id="patch_3">
    <path d="M 442.896643 301.171221 
Q 351.318175 176.916344 260.527626 53.730527 
" clip-path="url(#pc7bdd20692)" style="fill: none; stroke: #ff0000; stroke-width: 1.187841; stroke-linecap: round"/>
    <path d="M 261.290822 58.13706 
L 260.527626 53.730527 
L 264.51077 55.76389 
z
" clip-path="url(#pc7bdd20692)" style="fill: #ff0000; stroke: #ff0000; stroke-width: 1.187841; stroke-linecap: round"/>
   </g>
   <g id="patch_4">
    <path d="M 443.973519 315.795826 
Q 420.40915 360.189821 397.142128 404.023629 
" clip-path="url(#pc7bdd20692)" style="fill: none; stroke: #ff0000; stroke-width: 0.567257; stroke-linecap: round"/>
    <path d="M 400.784072 401.4282 
L 397.142128 404.023629 
L 397.250951 399.552817 
z
" clip-path="url(#pc7bdd20692)" style="fill: #ff0000; stroke: #ff0000; stroke-width: 0.567257; stroke-linecap: round"/>
   </g>
   <g id="patch_5">
    <path d="M 441.508096 302.447002 
Q 387.647708 255.441721 334.24861 208.839019 
" clip-path="url(#pc7bdd20692)" style="fill: none; stroke: #ff0000; stroke-width: 0.547618; stroke-linecap: round"/>
    <path d="M 335.947247 212.976002 
L 334.24861 208.839019 
L 338.577379 209.9623 
z
" clip-path="url(#pc7bdd20692)" style="fill: #ff0000; stroke: #ff0000; stroke-width: 0.547618; stroke-linecap: round"/>
   </g>
   <g id="patch_6">
    <path d="M 440.667857 303.58886 
Q 271.106976 198.765005 102.031665 94.241333 
" clip-path="url(#pc7bdd20692)" style="fill: none; stroke: #ff0000; stroke-width: 0.510597; stroke-linecap: round"/>
    <path d="M 104.382328 98.045854 
L 102.031665 94.241333 
L 106.48568 94.643515 
z
" clip-path="url(#pc7bdd20692)" style="fill: #ff0000; stroke: #ff0000; stroke-width: 0.510597; stroke-linecap: round"/>
   </g>
   <g id="patch_7">
    <path d="M 451.998256 300.439621 
Q 482.408482 241.321772 512.629871 182.571026 
" clip-path="url(#pc7bdd20692)" style="fill: none; stroke: #008000; stroke-width: 0.36924; stroke-linecap: round"/>
    <path d="M 509.021665 185.213155 
L 512.629871 182.571026 
L 512.57865 187.042868 
z
" clip-path="url(#pc7bdd20692)" style="fill: #008000; stroke: #008000; stroke-width: 0.36924; stroke-linecap: round"/>
   </g>
   <g id="patch_8">
    <path d="M 445.368706 299.903127 
Q 405.637258 177.127154 366.232908 55.36196 
" clip-path="url(#pc7bdd20692)" style="fill: none; stroke: #008000; stroke-width: 0.950229; stroke-linecap: round"/>
    <path d="M 365.56162 59.783427 
L 366.232908 55.36196 
L 369.367309 58.55187 
z
" clip-path="url(#pc7bdd20692)" style="fill: #008000; stroke: #008000; stroke-width: 0.950229; stroke-linecap: round"/>
   </g>
   <g id="patch_9">
    <path d="M 259.738307 52.659568 
Q 351.316775 176.914445 442.314436 300.381274 
" clip-path="url(#pc7bdd20692)" style="fill: none; stroke: #ff0000; stroke-width: 0.875606; stroke-linecap: round"/>
    <path d="M 441.55124 295.974741 
L 442.314436 300.381274 
L 438.331292 298.34791 
z
" clip-path="url(#pc7bdd20692)" style="fill: #ff0000; stroke: #ff0000; stroke-width: 0.875606; stroke-linecap: round"/>
   </g>
   <g id="patch_10">
    <path d="M 258.235247 53.545358 
Q 290.931194 124.213924 323.212874 193.987101 
" clip-path="url(#pc7bdd20692)" style="fill: none; stroke: #ff0000; stroke-width: 0.882423; stroke-linecap: round"/>
    <path d="M 323.348406 189.517019 
L 323.212874 193.987101 
L 319.718128 191.196626 
z
" clip-path="url(#pc7bdd20692)" style="fill: #ff0000; stroke: #ff0000; stroke-width: 0.882423; stroke-linecap: round"/>
   </g>
   <g id="patch_11">
    <path d="M 246.702514 49.243349 
Q 155.111269 90.48721 64.185438 131.431434 
" clip-path="url(#pc7bdd20692)" style="fill: none; stroke: #ff0000; stroke-width: 0.652722; stroke-linecap: round"/>
    <path d="M 68.653899 131.612691 
L 64.185438 131.431434 
L 67.01152 127.965419 
z
" clip-path="url(#pc7bdd20692)" style="fill: #ff0000; stroke: #ff0000; stroke-width: 0.652722; stroke-linecap: round"/>
   </g>
   <g id="patch_12">
    <path d="M 246.245137 47.963054 
Q 174.390847 67.536435 102.902942 87.01001 
" clip-path="url(#pc7bdd20692)" style="fill: none; stroke: #ff0000; stroke-width: 0.339647; stroke-linecap: round"/>
    <path d="M 107.287968 87.888389 
L 102.902942 87.01001 
L 106.23666 84.029017 
z
" clip-path="url(#pc7bdd20692)" style="fill: #ff0000; stroke: #ff0000; stroke-width: 0.339647; stroke-linecap: round"/>
   </g>
   <g id="patch_13">
    <path d="M 262.372614 49.506469 
Q 385.687814 110.09604 508.314274 170.347207 
" clip-path="url(#pc7bdd20692)" style="fill: none; stroke: #ff0000; stroke-width: 0.686371; stroke-linecap: round"/>
    <path d="M 505.606183 166.78824 
L 508.314274 170.347207 
L 503.842246 170.3783 
z
" clip-path="url(#pc7bdd20692)" style="fill: #ff0000; stroke: #ff0000; stroke-width: 0.686371; stroke-linecap: round"/>
   </g>
   <g id="patch_14">
    <path d="M 250.703012 53.419789 
Q 164.524515 224.436195 78.696946 394.756204 
" clip-path="url(#pc7bdd20692)" style="fill: none; stroke: #ff0000; stroke-width: 0.697492; stroke-linecap: round"/>
    <path d="M 82.283037 392.084136 
L 78.696946 394.756204 
L 78.710946 390.28409 
z
" clip-path="url(#pc7bdd20692)" style="fill: #ff0000; stroke: #ff0000; stroke-width: 0.697492; stroke-linecap: round"/>
   </g>
   <g id="patch_15">
    <path d="M 263.262853 45.721329 
Q 308.920582 45.900815 353.170738 46.074768 
" clip-path="url(#pc7bdd20692)" style="fill: none; stroke: #ff0000; stroke-width: 1.25898; stroke-linecap: round"/>
    <path d="M 349.178631 44.059059 
L 353.170738 46.074768 
L 349.162907 48.059028 
z
" clip-path="url(#pc7bdd20692)" style="fill: #ff0000; stroke: #ff0000; stroke-width: 1.25898; stroke-linecap: round"/>
   </g>
   <g id="patch_16">
    <path d="M 323.628508 194.885448 
Q 290.932562 124.216882 258.419422 53.943431 
" clip-path="url(#pc7bdd20692)" style="fill: none; stroke: #008000; stroke-width: 0.389394; stroke-linecap: round"/>
    <path d="M 258.283889 58.413513 
L 258.419422 53.943431 
L 261.914168 56.733906 
z
" clip-path="url(#pc7bdd20692)" style="fill: #008000; stroke: #008000; stroke-width: 0.389394; stroke-linecap: round"/>
   </g>
   <g id="patch_17">
    <path d="M 333.791454 208.440047 
Q 387.651841 255.445328 440.822117 301.848331 
" clip-path="url(#pc7bdd20692)" style="fill: none; stroke: #008000; stroke-width: 0.819264; stroke-linecap: round"/>
    <path d="M 439.12348 297.711347 
L 440.822117 301.848331 
L 436.493348 300.72505 
z
" clip-path="url(#pc7bdd20692)" style="fill: #008000; stroke: #008000; stroke-width: 0.819264; stroke-linecap: round"/>
   </g>
   <g id="patch_18">
    <path d="M 318.862387 200.657157 
Q 191.445453 169.016323 64.847279 137.578807 
" clip-path="url(#pc7bdd20692)" style="fill: none; stroke: #008000; stroke-width: 0.754563; stroke-linecap: round"/>
    <path d="M 68.247363 140.483877 
L 64.847279 137.578807 
L 69.211385 136.601782 
z
" clip-path="url(#pc7bdd20692)" style="fill: #008000; stroke: #008000; stroke-width: 0.754563; stroke-linecap: round"/>
   </g>
   <g id="patch_19">
    <path d="M 319.478774 198.957241 
Q 210.72203 146.065335 102.780656 93.56997 
" clip-path="url(#pc7bdd20692)" style="fill: none; stroke: #ff0000; stroke-width: 0.810961; stroke-linecap: round"/>
    <path d="M 105.503108 97.117964 
L 102.780656 93.56997 
L 107.252522 93.520805 
z
" clip-path="url(#pc7bdd20692)" style="fill: #ff0000; stroke: #ff0000; stroke-width: 0.810961; stroke-linecap: round"/>
   </g>
   <g id="patch_20">
    <path d="M 335.83246 201.466864 
Q 422.021767 188.624712 507.36432 175.908726 
" clip-path="url(#pc7bdd20692)" style="fill: none; stroke: #008000; stroke-width: 0.765721; stroke-linecap: round"/>
    <path d="M 503.113251 174.520054 
L 507.36432 175.908726 
L 503.70274 178.476378 
z
" clip-path="url(#pc7bdd20692)" style="fill: #008000; stroke: #008000; stroke-width: 0.765721; stroke-linecap: round"/>
   </g>
   <g id="patch_21">
    <path d="M 320.478529 208.123522 
Q 200.854959 302.966858 81.646499 397.481074 
" clip-path="url(#pc7bdd20692)" style="fill: none; stroke: #008000; stroke-width: 0.473824; stroke-linecap: round"/>
    <path d="M 86.023423 396.563177 
L 81.646499 397.481074 
L 83.538335 393.428797 
z
" clip-path="url(#pc7bdd20692)" style="fill: #008000; stroke: #008000; stroke-width: 0.473824; stroke-linecap: round"/>
   </g>
   <g id="patch_22">
    <path d="M 329.201978 194.306933 
Q 345.251448 124.432377 360.973745 55.982234 
" clip-path="url(#pc7bdd20692)" style="fill: none; stroke: #008000; stroke-width: 1.307209; stroke-linecap: round"/>
    <path d="M 358.12906 59.432998 
L 360.973745 55.982234 
L 362.027545 60.32844 
z
" clip-path="url(#pc7bdd20692)" style="fill: #008000; stroke: #008000; stroke-width: 1.307209; stroke-linecap: round"/>
   </g>
   <g id="patch_23">
    <path d="M 63.518552 131.731735 
Q 155.109797 90.487873 245.910041 49.600202 
" clip-path="url(#pc7bdd20692)" style="fill: none; stroke: #008000; stroke-width: 0.775914; stroke-linecap: round"/>
    <path d="M 241.44158 49.418946 
L 245.910041 49.600202 
L 243.083959 53.066217 
z
" clip-path="url(#pc7bdd20692)" style="fill: #008000; stroke: #008000; stroke-width: 0.775914; stroke-linecap: round"/>
   </g>
   <g id="patch_24">
    <path d="M 64.023278 137.374187 
Q 191.440212 169.015021 318.472917 200.560442 
" clip-path="url(#pc7bdd20692)" style="fill: none; stroke: #ff0000; stroke-width: 0.354102; stroke-linecap: round"/>
    <path d="M 315.072833 197.655372 
L 318.472917 200.560442 
L 314.108811 201.537467 
z
" clip-path="url(#pc7bdd20692)" style="fill: #ff0000; stroke: #ff0000; stroke-width: 0.354102; stroke-linecap: round"/>
   </g>
   <g id="patch_25">
    <path d="M 61.19185 128.656444 
Q 74.899775 112.337527 88.065669 96.663883 
" clip-path="url(#pc7bdd20692)" style="fill: none; stroke: #ff0000; stroke-width: 0.753752; stroke-linecap: round"/>
    <path d="M 83.961489 98.440314 
L 88.065669 96.663883 
L 87.024305 101.013086 
z
" clip-path="url(#pc7bdd20692)" style="fill: #ff0000; stroke: #ff0000; stroke-width: 0.753752; stroke-linecap: round"/>
   </g>
   <g id="patch_26">
    <path d="M 64.251997 136.021776 
Q 286.201352 154.897029 507.338843 173.703239 
" clip-path="url(#pc7bdd20692)" style="fill: none; stroke: #ff0000; stroke-width: 0.728774; stroke-linecap: round"/>
    <path d="M 503.522704 171.371483 
L 507.338843 173.703239 
L 503.183756 175.357097 
z
" clip-path="url(#pc7bdd20692)" style="fill: #ff0000; stroke: #ff0000; stroke-width: 0.728774; stroke-linecap: round"/>
   </g>
   <g id="patch_27">
    <path d="M 63.943755 132.875327 
Q 209.433861 90.700221 354.287373 48.709653 
" clip-path="url(#pc7bdd20692)" style="fill: none; stroke: #008000; stroke-width: 0.592827; stroke-linecap: round"/>
    <path d="M 349.888695 47.902417 
L 354.287373 48.709653 
L 351.002378 51.744254 
z
" clip-path="url(#pc7bdd20692)" style="fill: #008000; stroke: #008000; stroke-width: 0.592827; stroke-linecap: round"/>
   </g>
   <g id="patch_28">
    <path d="M 102.533094 87.110758 
Q 174.387385 67.537378 245.436766 48.183257 
" clip-path="url(#pc7bdd20692)" style="fill: none; stroke: #ff0000; stroke-width: 0.746166; stroke-linecap: round"/>
    <path d="M 241.05174 47.304879 
L 245.436766 48.183257 
L 242.103048 51.164251 
z
" clip-path="url(#pc7bdd20692)" style="fill: #ff0000; stroke: #ff0000; stroke-width: 0.746166; stroke-linecap: round"/>
   </g>
   <g id="patch_29">
    <path d="M 100.058646 95.743855 
Q 243.481519 250.809446 385.67179 404.542374 
" clip-path="url(#pc7bdd20692)" style="fill: none; stroke: #ff0000; stroke-width: 1.623651; stroke-linecap: round"/>
    <path d="M 384.424012 400.247836 
L 385.67179 404.542374 
L 381.487493 402.963874 
z
" clip-path="url(#pc7bdd20692)" style="fill: #ff0000; stroke: #ff0000; stroke-width: 1.623651; stroke-linecap: round"/>
   </g>
   <g id="patch_30">
    <path d="M 101.546169 93.941195 
Q 271.107049 198.76505 439.174373 302.665577 
" clip-path="url(#pc7bdd20692)" style="fill: none; stroke: #ff0000; stroke-width: 1.570541; stroke-linecap: round"/>
    <path d="M 436.82371 298.861055 
L 439.174373 302.665577 
L 434.720358 302.263394 
z
" clip-path="url(#pc7bdd20692)" style="fill: #ff0000; stroke: #ff0000; stroke-width: 1.570541; stroke-linecap: round"/>
   </g>
   <g id="patch_31">
    <path d="M 101.964057 93.172832 
Q 210.720801 146.064737 318.877444 198.664795 
" clip-path="url(#pc7bdd20692)" style="fill: none; stroke: #ff0000; stroke-width: 0.596856; stroke-linecap: round"/>
    <path d="M 316.154992 195.116801 
L 318.877444 198.664795 
L 314.405578 198.71396 
z
" clip-path="url(#pc7bdd20692)" style="fill: #ff0000; stroke: #ff0000; stroke-width: 0.596856; stroke-linecap: round"/>
   </g>
   <g id="patch_32">
    <path d="M 88.608292 96.017906 
Q 74.900366 112.336824 62.202945 127.452762 
" clip-path="url(#pc7bdd20692)" style="fill: none; stroke: #ff0000; stroke-width: 1.405213; stroke-linecap: round"/>
    <path d="M 66.307126 125.676332 
L 62.202945 127.452762 
L 63.244309 123.10356 
z
" clip-path="url(#pc7bdd20692)" style="fill: #ff0000; stroke: #ff0000; stroke-width: 1.405213; stroke-linecap: round"/>
   </g>
   <g id="patch_33">
    <path d="M 101.504853 94.006619 
Q 204.655763 159.05609 307.240195 223.748327 
" clip-path="url(#pc7bdd20692)" style="fill: none; stroke: #ff0000; stroke-width: 0.599007; stroke-linecap: round"/>
    <path d="M 304.923614 219.922958 
L 307.240195 223.748327 
L 302.789951 223.306371 
z
" clip-path="url(#pc7bdd20692)" style="fill: #ff0000; stroke: #ff0000; stroke-width: 0.599007; stroke-linecap: round"/>
   </g>
   <g id="patch_34">
    <path d="M 102.667922 91.096436 
Q 305.478546 131.946271 506.596099 172.45509 
" clip-path="url(#pc7bdd20692)" style="fill: none; stroke: #ff0000; stroke-width: 1.544741; stroke-linecap: round"/>
    <path d="M 503.069756 169.704652 
L 506.596099 172.45509 
L 502.279943 173.625902 
z
" clip-path="url(#pc7bdd20692)" style="fill: #ff0000; stroke: #ff0000; stroke-width: 1.544741; stroke-linecap: round"/>
   </g>
   <g id="patch_35">
    <path d="M 93.635221 98.029313 
Q 84.313291 246.285551 75.119141 392.509562 
" clip-path="url(#pc7bdd20692)" style="fill: none; stroke: #ff0000; stroke-width: 1.821268; stroke-linecap: round"/>
    <path d="M 77.366212 388.642952 
L 75.119141 392.509562 
L 73.374096 388.391939 
z
" clip-path="url(#pc7bdd20692)" style="fill: #ff0000; stroke: #ff0000; stroke-width: 1.821268; stroke-linecap: round"/>
   </g>
   <g id="patch_36">
    <path d="M 102.730524 88.011174 
Q 228.710229 67.750325 353.967612 47.605644 
" clip-path="url(#pc7bdd20692)" style="fill: none; stroke: #ff0000; stroke-width: 0.654367; stroke-linecap: round"/>
    <path d="M 349.700788 46.266162 
L 353.967612 47.605644 
L 350.335931 50.215414 
z
" clip-path="url(#pc7bdd20692)" style="fill: #ff0000; stroke: #ff0000; stroke-width: 0.654367; stroke-linecap: round"/>
   </g>
   <g id="patch_37">
    <path d="M 312.412901 220.504982 
Q 284.866091 137.208089 257.611651 54.795271 
" clip-path="url(#pc7bdd20692)" style="fill: none; stroke: #008000; stroke-width: 0.832859; stroke-linecap: round"/>
    <path d="M 256.968721 59.22095 
L 257.611651 54.795271 
L 260.766437 57.965022 
z
" clip-path="url(#pc7bdd20692)" style="fill: #008000; stroke: #008000; stroke-width: 0.832859; stroke-linecap: round"/>
   </g>
   <g id="patch_38">
    <path d="M 318.506948 236.702087 
Q 353.958791 320.480631 389.230934 403.834517 
" clip-path="url(#pc7bdd20692)" style="fill: none; stroke: #008000; stroke-width: 0.412433; stroke-linecap: round"/>
    <path d="M 389.513989 399.371348 
L 389.230934 403.834517 
L 385.830232 400.930171 
z
" clip-path="url(#pc7bdd20692)" style="fill: #008000; stroke: #008000; stroke-width: 0.412433; stroke-linecap: round"/>
   </g>
   <g id="patch_39">
    <path d="M 322.565661 233.167162 
Q 381.584441 268.434741 439.747532 303.190989 
" clip-path="url(#pc7bdd20692)" style="fill: none; stroke: #008000; stroke-width: 0.891589; stroke-linecap: round"/>
    <path d="M 437.339794 299.422329 
L 439.747532 303.190989 
L 435.287961 302.855984 
z
" clip-path="url(#pc7bdd20692)" style="fill: #008000; stroke: #008000; stroke-width: 0.891589; stroke-linecap: round"/>
   </g>
   <g id="patch_40">
    <path d="M 306.985854 225.791837 
Q 185.378907 182.007117 64.590141 138.516985 
" clip-path="url(#pc7bdd20692)" style="fill: none; stroke: #008000; stroke-width: 0.777794; stroke-linecap: round"/>
    <path d="M 67.676105 141.753777 
L 64.590141 138.516985 
L 69.031153 137.990289 
z
" clip-path="url(#pc7bdd20692)" style="fill: #008000; stroke: #008000; stroke-width: 0.777794; stroke-linecap: round"/>
   </g>
   <g id="patch_41">
    <path d="M 307.804971 224.104488 
Q 204.654061 159.055017 102.710649 94.767023 
" clip-path="url(#pc7bdd20692)" style="fill: none; stroke: #ff0000; stroke-width: 1.276838; stroke-linecap: round"/>
    <path d="M 105.027231 98.592392 
L 102.710649 94.767023 
L 107.160893 95.208979 
z
" clip-path="url(#pc7bdd20692)" style="fill: #ff0000; stroke: #ff0000; stroke-width: 1.276838; stroke-linecap: round"/>
   </g>
   <g id="patch_42">
    <path d="M 323.497246 226.475113 
Q 415.957334 201.614622 507.600225 176.973857 
" clip-path="url(#pc7bdd20692)" style="fill: none; stroke: #008000; stroke-width: 0.756884; stroke-linecap: round"/>
    <path d="M 503.218109 176.081079 
L 507.600225 176.973857 
L 504.256732 179.943883 
z
" clip-path="url(#pc7bdd20692)" style="fill: #008000; stroke: #008000; stroke-width: 0.756884; stroke-linecap: round"/>
   </g>
   <g id="patch_43">
    <path d="M 308.120294 233.806537 
Q 194.790711 315.955674 82.626866 397.259805 
" clip-path="url(#pc7bdd20692)" style="fill: none; stroke: #008000; stroke-width: 1.287782; stroke-linecap: round"/>
    <path d="M 87.039305 396.531533 
L 82.626866 397.259805 
L 84.691713 393.292891 
z
" clip-path="url(#pc7bdd20692)" style="fill: #008000; stroke: #008000; stroke-width: 1.287782; stroke-linecap: round"/>
   </g>
   <g id="patch_44">
    <path d="M 322.092135 223.571612 
Q 386.122682 176.172071 449.807087 129.028767 
" clip-path="url(#pc7bdd20692)" style="fill: none; stroke: #008000; stroke-width: 0.385197; stroke-linecap: round"/>
    <path d="M 445.402165 129.801208 
L 449.807087 129.028767 
L 447.782087 133.016169 
z
" clip-path="url(#pc7bdd20692)" style="fill: #008000; stroke: #008000; stroke-width: 0.385197; stroke-linecap: round"/>
   </g>
   <g id="patch_45">
    <path d="M 317.337102 220.351403 
Q 339.185876 137.418917 360.506615 56.490723 
" clip-path="url(#pc7bdd20692)" style="fill: none; stroke: #008000; stroke-width: 1.853863; stroke-linecap: round"/>
    <path d="M 357.553567 59.849221 
L 360.506615 56.490723 
L 361.421585 60.86826 
z
" clip-path="url(#pc7bdd20692)" style="fill: #008000; stroke: #008000; stroke-width: 1.853863; stroke-linecap: round"/>
   </g>
   <g id="patch_46">
    <path d="M 509.005477 170.686821 
Q 385.690276 110.09725 263.043338 49.836022 
" clip-path="url(#pc7bdd20692)" style="fill: none; stroke: #008000; stroke-width: 0.665963; stroke-linecap: round"/>
    <path d="M 265.751429 53.394988 
L 263.043338 49.836022 
L 267.515366 49.804928 
z
" clip-path="url(#pc7bdd20692)" style="fill: #008000; stroke: #008000; stroke-width: 0.665963; stroke-linecap: round"/>
   </g>
   <g id="patch_47">
    <path d="M 512.815628 182.209912 
Q 482.405402 241.327761 452.188915 300.068977 
" clip-path="url(#pc7bdd20692)" style="fill: none; stroke: #008000; stroke-width: 0.378826; stroke-linecap: round"/>
    <path d="M 455.797122 297.426848 
L 452.188915 300.068977 
L 452.240136 295.597134 
z
" clip-path="url(#pc7bdd20692)" style="fill: #008000; stroke: #008000; stroke-width: 0.378826; stroke-linecap: round"/>
   </g>
   <g id="patch_48">
    <path d="M 508.289244 172.79612 
Q 305.47862 131.946286 103.076237 91.178678 
" clip-path="url(#pc7bdd20692)" style="fill: none; stroke: #ff0000; stroke-width: 0.372474; stroke-linecap: round"/>
    <path d="M 106.60258 93.929116 
L 103.076237 91.178678 
L 107.392392 90.007866 
z
" clip-path="url(#pc7bdd20692)" style="fill: #ff0000; stroke: #ff0000; stroke-width: 0.372474; stroke-linecap: round"/>
   </g>
   <g id="patch_49">
    <path d="M 78.344236 395.456137 
Q 164.522733 224.439731 250.083364 54.649446 
" clip-path="url(#pc7bdd20692)" style="fill: none; stroke: #ff0000; stroke-width: 1.228048; stroke-linecap: round"/>
    <path d="M 246.497273 57.321514 
L 250.083364 54.649446 
L 250.069364 59.12156 
z
" clip-path="url(#pc7bdd20692)" style="fill: #ff0000; stroke: #ff0000; stroke-width: 1.228048; stroke-linecap: round"/>
   </g>
   <g id="patch_50">
    <path d="M 83.108482 403.43471 
Q 233.615884 407.710681 382.339838 411.935984 
" clip-path="url(#pc7bdd20692)" style="fill: none; stroke: #008000; stroke-width: 1.595808; stroke-linecap: round"/>
    <path d="M 378.398249 409.823195 
L 382.339838 411.935984 
L 378.284653 413.821582 
z
" clip-path="url(#pc7bdd20692)" style="fill: #008000; stroke: #008000; stroke-width: 1.595808; stroke-linecap: round"/>
   </g>
   <g id="patch_51">
    <path d="M 82.84165 401.053125 
Q 261.24109 355.666194 438.316479 310.616117 
" clip-path="url(#pc7bdd20692)" style="fill: none; stroke: #ff0000; stroke-width: 1.221992; stroke-linecap: round"/>
    <path d="M 433.946852 309.664091 
L 438.316479 310.616117 
L 434.933082 313.540604 
z
" clip-path="url(#pc7bdd20692)" style="fill: #ff0000; stroke: #ff0000; stroke-width: 1.221992; stroke-linecap: round"/>
   </g>
   <g id="patch_52">
    <path d="M 81.233318 397.808664 
Q 200.856889 302.965328 319.25979 209.089797 
" clip-path="url(#pc7bdd20692)" style="fill: none; stroke: #ff0000; stroke-width: 1.393321; stroke-linecap: round"/>
    <path d="M 314.882866 210.007695 
L 319.25979 209.089797 
L 317.367954 213.142075 
z
" clip-path="url(#pc7bdd20692)" style="fill: #ff0000; stroke: #ff0000; stroke-width: 1.393321; stroke-linecap: round"/>
   </g>
   <g id="patch_53">
    <path d="M 73.84068 394.551042 
Q 65.034524 269.237447 56.328839 145.353579 
" clip-path="url(#pc7bdd20692)" style="fill: none; stroke: #ff0000; stroke-width: 1.28194; stroke-linecap: round"/>
    <path d="M 54.614159 149.483939 
L 56.328839 145.353579 
L 58.604319 149.203539 
z
" clip-path="url(#pc7bdd20692)" style="fill: #ff0000; stroke: #ff0000; stroke-width: 1.28194; stroke-linecap: round"/>
   </g>
   <g id="patch_54">
    <path d="M 74.991103 394.545879 
Q 84.313033 246.289642 93.34901 102.581223 
" clip-path="url(#pc7bdd20692)" style="fill: none; stroke: #008000; stroke-width: 4.075726; stroke-linecap: round"/>
    <path d="M 91.101939 106.447832 
L 93.34901 102.581223 
L 95.094055 106.698845 
z
" clip-path="url(#pc7bdd20692)" style="fill: #008000; stroke: #008000; stroke-width: 4.075726; stroke-linecap: round"/>
   </g>
   <g id="patch_55">
    <path d="M 81.458547 398.106684 
Q 194.788129 315.957546 307.294023 234.405475 
" clip-path="url(#pc7bdd20692)" style="fill: none; stroke: #ff0000; stroke-width: 0.909923; stroke-linecap: round"/>
    <path d="M 302.881584 235.133747 
L 307.294023 234.405475 
L 305.229176 238.372389 
z
" clip-path="url(#pc7bdd20692)" style="fill: #ff0000; stroke: #ff0000; stroke-width: 0.909923; stroke-linecap: round"/>
   </g>
   <g id="patch_56">
    <path d="M 82.138649 399.212459 
Q 295.613633 288.847055 506.740368 179.695683 
" clip-path="url(#pc7bdd20692)" style="fill: none; stroke: #ff0000; stroke-width: 2.364428; stroke-linecap: round"/>
    <path d="M 502.26864 179.756069 
L 506.740368 179.695683 
L 504.10564 183.309297 
z
" clip-path="url(#pc7bdd20692)" style="fill: #ff0000; stroke: #ff0000; stroke-width: 2.364428; stroke-linecap: round"/>
   </g>
   <g id="patch_57">
    <path d="M 81.439919 398.080245 
Q 265.782126 263.403238 444.450414 132.871491 
" clip-path="url(#pc7bdd20692)" style="fill: none; stroke: #ff0000; stroke-width: 6.285001; stroke-linecap: round"/>
    <path d="M 440.040725 133.616235 
L 444.450414 132.871491 
L 442.400396 136.846089 
z
" clip-path="url(#pc7bdd20692)" style="fill: #ff0000; stroke: #ff0000; stroke-width: 6.285001; stroke-linecap: round"/>
   </g>
   <g id="patch_58">
    <path d="M 79.892056 396.457005 
Q 218.84342 224.652199 355.718281 55.414861 
" clip-path="url(#pc7bdd20692)" style="fill: none; stroke: #ff0000; stroke-width: 2.953473; stroke-linecap: round"/>
    <path d="M 351.647837 57.267287 
L 355.718281 55.414861 
L 354.757955 59.782672 
z
" clip-path="url(#pc7bdd20692)" style="fill: #ff0000; stroke: #ff0000; stroke-width: 2.953473; stroke-linecap: round"/>
   </g>
   <g id="patch_59">
    <path d="M 354.577021 46.080296 
Q 308.919293 45.90081 263.662166 45.722899 
" clip-path="url(#pc7bdd20692)" style="fill: none; stroke: #ff0000; stroke-width: 0.358312; stroke-linecap: round"/>
    <path d="M 267.654273 47.738608 
L 263.662166 45.722899 
L 267.669997 43.738639 
z
" clip-path="url(#pc7bdd20692)" style="fill: #ff0000; stroke: #ff0000; stroke-width: 0.358312; stroke-linecap: round"/>
   </g>
   <g id="patch_60">
    <path d="M 361.302496 54.550953 
Q 345.253025 124.425509 329.394646 193.468114 
" clip-path="url(#pc7bdd20692)" style="fill: none; stroke: #008000; stroke-width: 0.763497; stroke-linecap: round"/>
    <path d="M 332.239331 190.01735 
L 329.394646 193.468114 
L 328.340846 189.121908 
z
" clip-path="url(#pc7bdd20692)" style="fill: #008000; stroke: #008000; stroke-width: 0.763497; stroke-linecap: round"/>
   </g>
   <g id="patch_61">
    <path d="M 354.688425 47.489718 
Q 228.708721 67.750568 104.540481 87.720085 
" clip-path="url(#pc7bdd20692)" style="fill: none; stroke: #008000; stroke-width: 1.641044; stroke-linecap: round"/>
    <path d="M 108.807305 89.059568 
L 104.540481 87.720085 
L 108.172161 85.110316 
z
" clip-path="url(#pc7bdd20692)" style="fill: #008000; stroke: #008000; stroke-width: 1.641044; stroke-linecap: round"/>
   </g>
   <g id="patch_62">
    <path d="M 361.034365 54.487517 
Q 339.18559 137.420004 317.478864 219.813309 
" clip-path="url(#pc7bdd20692)" style="fill: none; stroke: #ff0000; stroke-width: 0.498714; stroke-linecap: round"/>
    <path d="M 320.431912 216.454811 
L 317.478864 219.813309 
L 316.563894 215.435772 
z
" clip-path="url(#pc7bdd20692)" style="fill: #ff0000; stroke: #ff0000; stroke-width: 0.498714; stroke-linecap: round"/>
   </g>
   <g id="patch_63">
    <path d="M 357.79591 52.846001 
Q 218.844546 224.650807 80.8733 395.243757 
" clip-path="url(#pc7bdd20692)" style="fill: none; stroke: #ff0000; stroke-width: 1.394051; stroke-linecap: round"/>
    <path d="M 84.943744 393.391331 
L 80.8733 395.243757 
L 81.833626 390.875946 
z
" clip-path="url(#pc7bdd20692)" style="fill: #ff0000; stroke: #ff0000; stroke-width: 1.394051; stroke-linecap: round"/>
   </g>
   <g id="patch_64">
    <path d="M 369.918207 51.627762 
Q 410.178302 84.867261 449.926306 117.683967 
" clip-path="url(#pc7bdd20692)" style="fill: none; stroke: #ff0000; stroke-width: 0.593964; stroke-linecap: round"/>
    <path d="M 448.115085 113.595021 
L 449.926306 117.683967 
L 445.568417 116.679577 
z
" clip-path="url(#pc7bdd20692)" style="fill: #ff0000; stroke: #ff0000; stroke-width: 0.593964; stroke-linecap: round"/>
   </g>
   <g id="patch_65">
    <path d="M 396.846585 404.580417 
Q 420.410954 360.186422 443.693389 316.323576 
" clip-path="url(#pc7bdd20692)" style="fill: none; stroke: #ff0000; stroke-width: 0.537852; stroke-linecap: round"/>
    <path d="M 440.051446 318.919004 
L 443.693389 316.323576 
L 443.584566 320.794387 
z
" clip-path="url(#pc7bdd20692)" style="fill: #ff0000; stroke: #ff0000; stroke-width: 0.537852; stroke-linecap: round"/>
   </g>
   <g id="patch_66">
    <path d="M 390.200341 403.969642 
Q 360.024383 307.4879 330.076721 211.736093 
" clip-path="url(#pc7bdd20692)" style="fill: none; stroke: #008000; stroke-width: 0.68406; stroke-linecap: round"/>
    <path d="M 329.36192 216.150734 
L 330.076721 211.736093 
L 333.179554 214.956718 
z
" clip-path="url(#pc7bdd20692)" style="fill: #008000; stroke: #008000; stroke-width: 0.68406; stroke-linecap: round"/>
   </g>
   <g id="patch_67">
    <path d="M 386.094046 406.737017 
Q 224.2048 273.761657 62.886597 141.255351 
" clip-path="url(#pc7bdd20692)" style="fill: none; stroke: #ff0000; stroke-width: 0.66097; stroke-linecap: round"/>
    <path d="M 64.7081 145.339727 
L 62.886597 141.255351 
L 67.247 142.248774 
z
" clip-path="url(#pc7bdd20692)" style="fill: #ff0000; stroke: #ff0000; stroke-width: 0.66097; stroke-linecap: round"/>
   </g>
   <g id="patch_68">
    <path d="M 386.90474 405.875412 
Q 243.481867 250.809821 100.975513 96.735151 
" clip-path="url(#pc7bdd20692)" style="fill: none; stroke: #008000; stroke-width: 1.207289; stroke-linecap: round"/>
    <path d="M 102.223291 101.029688 
L 100.975513 96.735151 
L 105.159809 98.313651 
z
" clip-path="url(#pc7bdd20692)" style="fill: #008000; stroke: #008000; stroke-width: 1.207289; stroke-linecap: round"/>
   </g>
   <g id="patch_69">
    <path d="M 389.408954 404.255207 
Q 353.957112 320.476664 318.649448 237.038838 
" clip-path="url(#pc7bdd20692)" style="fill: none; stroke: #ff0000; stroke-width: 0.33091; stroke-linecap: round"/>
    <path d="M 318.366393 241.502007 
L 318.649448 237.038838 
L 322.050151 239.943183 
z
" clip-path="url(#pc7bdd20692)" style="fill: #ff0000; stroke: #ff0000; stroke-width: 0.33091; stroke-linecap: round"/>
   </g>
   <g id="patch_70">
    <path d="M 396.790085 404.553475 
Q 454.782234 293.3682 512.465266 182.775576 
" clip-path="url(#pc7bdd20692)" style="fill: none; stroke: #ff0000; stroke-width: 0.597855; stroke-linecap: round"/>
    <path d="M 508.842158 185.397233 
L 512.465266 182.775576 
L 512.388727 187.247057 
z
" clip-path="url(#pc7bdd20692)" style="fill: #ff0000; stroke: #ff0000; stroke-width: 0.597855; stroke-linecap: round"/>
   </g>
   <g id="patch_71">
    <path d="M 384.12392 411.98667 
Q 233.616518 407.710699 84.861572 403.484516 
" clip-path="url(#pc7bdd20692)" style="fill: none; stroke: #ff0000; stroke-width: 1.568076; stroke-linecap: round"/>
    <path d="M 88.803161 405.597305 
L 84.861572 403.484516 
L 88.916756 401.598918 
z
" clip-path="url(#pc7bdd20692)" style="fill: #ff0000; stroke: #ff0000; stroke-width: 1.568076; stroke-linecap: round"/>
   </g>
   <g id="patch_72">
    <path d="M 394.668424 403.781652 
Q 424.949777 267.926122 454.981797 133.189203 
" clip-path="url(#pc7bdd20692)" style="fill: none; stroke: #ff0000; stroke-width: 1.025069; stroke-linecap: round"/>
    <path d="M 452.159481 136.658285 
L 454.981797 133.189203 
L 456.063673 137.528506 
z
" clip-path="url(#pc7bdd20692)" style="fill: #ff0000; stroke: #ff0000; stroke-width: 1.025069; stroke-linecap: round"/>
   </g>
   <g id="patch_73">
    <path d="M 392.088002 403.598756 
Q 378.012442 229.172648 364.011995 55.677341 
" clip-path="url(#pc7bdd20692)" style="fill: none; stroke: #ff0000; stroke-width: 0.835239; stroke-linecap: round"/>
    <path d="M 362.340215 59.82525 
L 364.011995 55.677341 
L 366.327254 59.50351 
z
" clip-path="url(#pc7bdd20692)" style="fill: #ff0000; stroke: #ff0000; stroke-width: 0.835239; stroke-linecap: round"/>
   </g>
   <g id="patch_74">
    <path d="M 455.231237 132.070106 
Q 424.949885 267.925636 394.830207 403.055822 
" clip-path="url(#pc7bdd20692)" style="fill: none; stroke: #008000; stroke-width: 0.664688; stroke-linecap: round"/>
    <path d="M 397.652523 399.58674 
L 394.830207 403.055822 
L 393.748331 398.71652 
z
" clip-path="url(#pc7bdd20692)" style="fill: #008000; stroke: #008000; stroke-width: 0.664688; stroke-linecap: round"/>
   </g>
   <g id="patch_75">
    <path d="M 448.495082 122.805998 
Q 275.647152 106.502819 103.410438 90.25729 
" clip-path="url(#pc7bdd20692)" style="fill: none; stroke: #008000; stroke-width: 0.549115; stroke-linecap: round"/>
    <path d="M 107.204955 92.624069 
L 103.410438 90.25729 
L 107.580571 88.641744 
z
" clip-path="url(#pc7bdd20692)" style="fill: #008000; stroke: #008000; stroke-width: 0.549115; stroke-linecap: round"/>
   </g>
   <g id="patch_76">
    <path d="M 450.12268 128.727438 
Q 265.780473 263.404446 82.051934 397.633119 
" clip-path="url(#pc7bdd20692)" style="fill: none; stroke: #ff0000; stroke-width: 0.67976; stroke-linecap: round"/>
    <path d="M 86.461622 396.888374 
L 82.051934 397.633119 
L 84.101951 393.658521 
z
" clip-path="url(#pc7bdd20692)" style="fill: #ff0000; stroke: #ff0000; stroke-width: 0.67976; stroke-linecap: round"/>
   </g>
   <g id="matplotlib.axis_1">
    <g id="xtick_1"/>
    <g id="xtick_2"/>
    <g id="xtick_3"/>
    <g id="xtick_4"/>
    <g id="xtick_5"/>
    <g id="xtick_6"/>
    <g id="xtick_7"/>
    <g id="xtick_8"/>
   </g>
   <g id="matplotlib.axis_2">
    <g id="ytick_1"/>
    <g id="ytick_2"/>
    <g id="ytick_3"/>
    <g id="ytick_4"/>
    <g id="ytick_5"/>
    <g id="ytick_6"/>
    <g id="ytick_7"/>
    <g id="ytick_8"/>
   </g>
   <g id="PathCollection_1">
    <defs>
     <path id="m286efdc128" d="M 0 11.18034 
C 2.965061 11.18034 5.80908 10.002309 7.905694 7.905694 
C 10.002309 5.80908 11.18034 2.965061 11.18034 0 
C 11.18034 -2.965061 10.002309 -5.80908 7.905694 -7.905694 
C 5.80908 -10.002309 2.965061 -11.18034 0 -11.18034 
C -2.965061 -11.18034 -5.80908 -10.002309 -7.905694 -7.905694 
C -10.002309 -5.80908 -11.18034 -2.965061 -11.18034 0 
C -11.18034 2.965061 -10.002309 5.80908 -7.905694 7.905694 
C -5.80908 10.002309 -2.965061 11.18034 0 11.18034 
z
" style="stroke: #87ceeb"/>
    </defs>
    <g clip-path="url(#pc7bdd20692)">
     <use xlink:href="#m286efdc128" x="448.035372" y="308.143516" style="fill: #87ceeb; stroke: #87ceeb"/>
     <use xlink:href="#m286efdc128" x="254.599578" y="45.687273" style="fill: #87ceeb; stroke: #87ceeb"/>
     <use xlink:href="#m286efdc128" x="327.264177" y="202.743533" style="fill: #87ceeb; stroke: #87ceeb"/>
     <use xlink:href="#m286efdc128" x="55.621488" y="135.287811" style="fill: #87ceeb; stroke: #87ceeb"/>
     <use xlink:href="#m286efdc128" x="94.178654" y="89.38654" style="fill: #87ceeb; stroke: #87ceeb"/>
     <use xlink:href="#m286efdc128" x="315.13117" y="228.724568" style="fill: #87ceeb; stroke: #87ceeb"/>
     <use xlink:href="#m286efdc128" x="516.778512" y="174.506017" style="fill: #87ceeb; stroke: #87ceeb"/>
     <use xlink:href="#m286efdc128" x="74.44767" y="403.188653" style="fill: #87ceeb; stroke: #87ceeb"/>
     <use xlink:href="#m286efdc128" x="363.240296" y="46.114353" style="fill: #87ceeb; stroke: #87ceeb"/>
     <use xlink:href="#m286efdc128" x="392.784732" y="412.232727" style="fill: #87ceeb; stroke: #87ceeb"/>
     <use xlink:href="#m286efdc128" x="457.114929" y="123.61903" style="fill: #87ceeb; stroke: #87ceeb"/>
    </g>
   </g>
   <g id="patch_77">
    <path d="M 7.2 450.72 
L 7.2 7.2 
" style="fill: none; stroke: #000000; stroke-width: 0.8; stroke-linejoin: miter; stroke-linecap: square"/>
   </g>
   <g id="patch_78">
    <path d="M 565.2 450.72 
L 565.2 7.2 
" style="fill: none; stroke: #000000; stroke-width: 0.8; stroke-linejoin: miter; stroke-linecap: square"/>
   </g>
   <g id="patch_79">
    <path d="M 7.2 450.72 
L 565.2 450.72 
" style="fill: none; stroke: #000000; stroke-width: 0.8; stroke-linejoin: miter; stroke-linecap: square"/>
   </g>
   <g id="patch_80">
    <path d="M 7.2 7.2 
L 565.2 7.2 
" style="fill: none; stroke: #000000; stroke-width: 0.8; stroke-linejoin: miter; stroke-linecap: square"/>
   </g>
   <g id="text_1">
    <g clip-path="url(#pc7bdd20692)">
     <!-- Barnesiella -->
     <g transform="translate(425.939122 310.351016) scale(0.08 -0.08)">
      <defs>
       <path id="DejaVuSans-42" d="M 1259 2228 
L 1259 519 
L 2272 519 
Q 2781 519 3026 730 
Q 3272 941 3272 1375 
Q 3272 1813 3026 2020 
Q 2781 2228 2272 2228 
L 1259 2228 
z
M 1259 4147 
L 1259 2741 
L 2194 2741 
Q 2656 2741 2882 2914 
Q 3109 3088 3109 3444 
Q 3109 3797 2882 3972 
Q 2656 4147 2194 4147 
L 1259 4147 
z
M 628 4666 
L 2241 4666 
Q 2963 4666 3353 4366 
Q 3744 4066 3744 3513 
Q 3744 3084 3544 2831 
Q 3344 2578 2956 2516 
Q 3422 2416 3680 2098 
Q 3938 1781 3938 1306 
Q 3938 681 3513 340 
Q 3088 0 2303 0 
L 628 0 
L 628 4666 
z
" transform="scale(0.015625)"/>
       <path id="DejaVuSans-61" d="M 2194 1759 
Q 1497 1759 1228 1600 
Q 959 1441 959 1056 
Q 959 750 1161 570 
Q 1363 391 1709 391 
Q 2188 391 2477 730 
Q 2766 1069 2766 1631 
L 2766 1759 
L 2194 1759 
z
M 3341 1997 
L 3341 0 
L 2766 0 
L 2766 531 
Q 2569 213 2275 61 
Q 1981 -91 1556 -91 
Q 1019 -91 701 211 
Q 384 513 384 1019 
Q 384 1609 779 1909 
Q 1175 2209 1959 2209 
L 2766 2209 
L 2766 2266 
Q 2766 2663 2505 2880 
Q 2244 3097 1772 3097 
Q 1472 3097 1187 3025 
Q 903 2953 641 2809 
L 641 3341 
Q 956 3463 1253 3523 
Q 1550 3584 1831 3584 
Q 2591 3584 2966 3190 
Q 3341 2797 3341 1997 
z
" transform="scale(0.015625)"/>
       <path id="DejaVuSans-72" d="M 2631 2963 
Q 2534 3019 2420 3045 
Q 2306 3072 2169 3072 
Q 1681 3072 1420 2755 
Q 1159 2438 1159 1844 
L 1159 0 
L 581 0 
L 581 3500 
L 1159 3500 
L 1159 2956 
Q 1341 3275 1631 3429 
Q 1922 3584 2338 3584 
Q 2397 3584 2469 3576 
Q 2541 3569 2628 3553 
L 2631 2963 
z
" transform="scale(0.015625)"/>
       <path id="DejaVuSans-6e" d="M 3513 2113 
L 3513 0 
L 2938 0 
L 2938 2094 
Q 2938 2591 2744 2837 
Q 2550 3084 2163 3084 
Q 1697 3084 1428 2787 
Q 1159 2491 1159 1978 
L 1159 0 
L 581 0 
L 581 3500 
L 1159 3500 
L 1159 2956 
Q 1366 3272 1645 3428 
Q 1925 3584 2291 3584 
Q 2894 3584 3203 3211 
Q 3513 2838 3513 2113 
z
" transform="scale(0.015625)"/>
       <path id="DejaVuSans-65" d="M 3597 1894 
L 3597 1613 
L 953 1613 
Q 991 1019 1311 708 
Q 1631 397 2203 397 
Q 2534 397 2845 478 
Q 3156 559 3463 722 
L 3463 178 
Q 3153 47 2828 -22 
Q 2503 -91 2169 -91 
Q 1331 -91 842 396 
Q 353 884 353 1716 
Q 353 2575 817 3079 
Q 1281 3584 2069 3584 
Q 2775 3584 3186 3129 
Q 3597 2675 3597 1894 
z
M 3022 2063 
Q 3016 2534 2758 2815 
Q 2500 3097 2075 3097 
Q 1594 3097 1305 2825 
Q 1016 2553 972 2059 
L 3022 2063 
z
" transform="scale(0.015625)"/>
       <path id="DejaVuSans-73" d="M 2834 3397 
L 2834 2853 
Q 2591 2978 2328 3040 
Q 2066 3103 1784 3103 
Q 1356 3103 1142 2972 
Q 928 2841 928 2578 
Q 928 2378 1081 2264 
Q 1234 2150 1697 2047 
L 1894 2003 
Q 2506 1872 2764 1633 
Q 3022 1394 3022 966 
Q 3022 478 2636 193 
Q 2250 -91 1575 -91 
Q 1294 -91 989 -36 
Q 684 19 347 128 
L 347 722 
Q 666 556 975 473 
Q 1284 391 1588 391 
Q 1994 391 2212 530 
Q 2431 669 2431 922 
Q 2431 1156 2273 1281 
Q 2116 1406 1581 1522 
L 1381 1569 
Q 847 1681 609 1914 
Q 372 2147 372 2553 
Q 372 3047 722 3315 
Q 1072 3584 1716 3584 
Q 2034 3584 2315 3537 
Q 2597 3491 2834 3397 
z
" transform="scale(0.015625)"/>
       <path id="DejaVuSans-69" d="M 603 3500 
L 1178 3500 
L 1178 0 
L 603 0 
L 603 3500 
z
M 603 4863 
L 1178 4863 
L 1178 4134 
L 603 4134 
L 603 4863 
z
" transform="scale(0.015625)"/>
       <path id="DejaVuSans-6c" d="M 603 4863 
L 1178 4863 
L 1178 0 
L 603 0 
L 603 4863 
z
" transform="scale(0.015625)"/>
      </defs>
      <use xlink:href="#DejaVuSans-42"/>
      <use xlink:href="#DejaVuSans-61" transform="translate(68.603516 0)"/>
      <use xlink:href="#DejaVuSans-72" transform="translate(129.882812 0)"/>
      <use xlink:href="#DejaVuSans-6e" transform="translate(169.246094 0)"/>
      <use xlink:href="#DejaVuSans-65" transform="translate(232.625 0)"/>
      <use xlink:href="#DejaVuSans-73" transform="translate(294.148438 0)"/>
      <use xlink:href="#DejaVuSans-69" transform="translate(346.248047 0)"/>
      <use xlink:href="#DejaVuSans-65" transform="translate(374.03125 0)"/>
      <use xlink:href="#DejaVuSans-6c" transform="translate(435.554688 0)"/>
      <use xlink:href="#DejaVuSans-6c" transform="translate(463.337891 0)"/>
      <use xlink:href="#DejaVuSans-61" transform="translate(491.121094 0)"/>
     </g>
    </g>
   </g>
   <g id="text_2">
    <g clip-path="url(#pc7bdd20692)">
     <!-- und. Enterobacteriaceae -->
     <g transform="translate(205.354578 47.894773) scale(0.08 -0.08)">
      <defs>
       <path id="DejaVuSans-75" d="M 544 1381 
L 544 3500 
L 1119 3500 
L 1119 1403 
Q 1119 906 1312 657 
Q 1506 409 1894 409 
Q 2359 409 2629 706 
Q 2900 1003 2900 1516 
L 2900 3500 
L 3475 3500 
L 3475 0 
L 2900 0 
L 2900 538 
Q 2691 219 2414 64 
Q 2138 -91 1772 -91 
Q 1169 -91 856 284 
Q 544 659 544 1381 
z
M 1991 3584 
L 1991 3584 
z
" transform="scale(0.015625)"/>
       <path id="DejaVuSans-64" d="M 2906 2969 
L 2906 4863 
L 3481 4863 
L 3481 0 
L 2906 0 
L 2906 525 
Q 2725 213 2448 61 
Q 2172 -91 1784 -91 
Q 1150 -91 751 415 
Q 353 922 353 1747 
Q 353 2572 751 3078 
Q 1150 3584 1784 3584 
Q 2172 3584 2448 3432 
Q 2725 3281 2906 2969 
z
M 947 1747 
Q 947 1113 1208 752 
Q 1469 391 1925 391 
Q 2381 391 2643 752 
Q 2906 1113 2906 1747 
Q 2906 2381 2643 2742 
Q 2381 3103 1925 3103 
Q 1469 3103 1208 2742 
Q 947 2381 947 1747 
z
" transform="scale(0.015625)"/>
       <path id="DejaVuSans-2e" d="M 684 794 
L 1344 794 
L 1344 0 
L 684 0 
L 684 794 
z
" transform="scale(0.015625)"/>
       <path id="DejaVuSans-20" transform="scale(0.015625)"/>
       <path id="DejaVuSans-45" d="M 628 4666 
L 3578 4666 
L 3578 4134 
L 1259 4134 
L 1259 2753 
L 3481 2753 
L 3481 2222 
L 1259 2222 
L 1259 531 
L 3634 531 
L 3634 0 
L 628 0 
L 628 4666 
z
" transform="scale(0.015625)"/>
       <path id="DejaVuSans-74" d="M 1172 4494 
L 1172 3500 
L 2356 3500 
L 2356 3053 
L 1172 3053 
L 1172 1153 
Q 1172 725 1289 603 
Q 1406 481 1766 481 
L 2356 481 
L 2356 0 
L 1766 0 
Q 1100 0 847 248 
Q 594 497 594 1153 
L 594 3053 
L 172 3053 
L 172 3500 
L 594 3500 
L 594 4494 
L 1172 4494 
z
" transform="scale(0.015625)"/>
       <path id="DejaVuSans-6f" d="M 1959 3097 
Q 1497 3097 1228 2736 
Q 959 2375 959 1747 
Q 959 1119 1226 758 
Q 1494 397 1959 397 
Q 2419 397 2687 759 
Q 2956 1122 2956 1747 
Q 2956 2369 2687 2733 
Q 2419 3097 1959 3097 
z
M 1959 3584 
Q 2709 3584 3137 3096 
Q 3566 2609 3566 1747 
Q 3566 888 3137 398 
Q 2709 -91 1959 -91 
Q 1206 -91 779 398 
Q 353 888 353 1747 
Q 353 2609 779 3096 
Q 1206 3584 1959 3584 
z
" transform="scale(0.015625)"/>
       <path id="DejaVuSans-62" d="M 3116 1747 
Q 3116 2381 2855 2742 
Q 2594 3103 2138 3103 
Q 1681 3103 1420 2742 
Q 1159 2381 1159 1747 
Q 1159 1113 1420 752 
Q 1681 391 2138 391 
Q 2594 391 2855 752 
Q 3116 1113 3116 1747 
z
M 1159 2969 
Q 1341 3281 1617 3432 
Q 1894 3584 2278 3584 
Q 2916 3584 3314 3078 
Q 3713 2572 3713 1747 
Q 3713 922 3314 415 
Q 2916 -91 2278 -91 
Q 1894 -91 1617 61 
Q 1341 213 1159 525 
L 1159 0 
L 581 0 
L 581 4863 
L 1159 4863 
L 1159 2969 
z
" transform="scale(0.015625)"/>
       <path id="DejaVuSans-63" d="M 3122 3366 
L 3122 2828 
Q 2878 2963 2633 3030 
Q 2388 3097 2138 3097 
Q 1578 3097 1268 2742 
Q 959 2388 959 1747 
Q 959 1106 1268 751 
Q 1578 397 2138 397 
Q 2388 397 2633 464 
Q 2878 531 3122 666 
L 3122 134 
Q 2881 22 2623 -34 
Q 2366 -91 2075 -91 
Q 1284 -91 818 406 
Q 353 903 353 1747 
Q 353 2603 823 3093 
Q 1294 3584 2113 3584 
Q 2378 3584 2631 3529 
Q 2884 3475 3122 3366 
z
" transform="scale(0.015625)"/>
      </defs>
      <use xlink:href="#DejaVuSans-75"/>
      <use xlink:href="#DejaVuSans-6e" transform="translate(63.378906 0)"/>
      <use xlink:href="#DejaVuSans-64" transform="translate(126.757812 0)"/>
      <use xlink:href="#DejaVuSans-2e" transform="translate(190.234375 0)"/>
      <use xlink:href="#DejaVuSans-20" transform="translate(222.021484 0)"/>
      <use xlink:href="#DejaVuSans-45" transform="translate(253.808594 0)"/>
      <use xlink:href="#DejaVuSans-6e" transform="translate(316.992188 0)"/>
      <use xlink:href="#DejaVuSans-74" transform="translate(380.371094 0)"/>
      <use xlink:href="#DejaVuSans-65" transform="translate(419.580078 0)"/>
      <use xlink:href="#DejaVuSans-72" transform="translate(481.103516 0)"/>
      <use xlink:href="#DejaVuSans-6f" transform="translate(519.966797 0)"/>
      <use xlink:href="#DejaVuSans-62" transform="translate(581.148438 0)"/>
      <use xlink:href="#DejaVuSans-61" transform="translate(644.625 0)"/>
      <use xlink:href="#DejaVuSans-63" transform="translate(705.904297 0)"/>
      <use xlink:href="#DejaVuSans-74" transform="translate(760.884766 0)"/>
      <use xlink:href="#DejaVuSans-65" transform="translate(800.09375 0)"/>
      <use xlink:href="#DejaVuSans-72" transform="translate(861.617188 0)"/>
      <use xlink:href="#DejaVuSans-69" transform="translate(902.730469 0)"/>
      <use xlink:href="#DejaVuSans-61" transform="translate(930.513672 0)"/>
      <use xlink:href="#DejaVuSans-63" transform="translate(991.792969 0)"/>
      <use xlink:href="#DejaVuSans-65" transform="translate(1046.773438 0)"/>
      <use xlink:href="#DejaVuSans-61" transform="translate(1108.296875 0)"/>
      <use xlink:href="#DejaVuSans-65" transform="translate(1169.576172 0)"/>
     </g>
    </g>
   </g>
   <g id="text_3">
    <g clip-path="url(#pc7bdd20692)">
     <!-- und. uncl. Mollicutes -->
     <g transform="translate(286.109177 204.951033) scale(0.08 -0.08)">
      <defs>
       <path id="DejaVuSans-4d" d="M 628 4666 
L 1569 4666 
L 2759 1491 
L 3956 4666 
L 4897 4666 
L 4897 0 
L 4281 0 
L 4281 4097 
L 3078 897 
L 2444 897 
L 1241 4097 
L 1241 0 
L 628 0 
L 628 4666 
z
" transform="scale(0.015625)"/>
      </defs>
      <use xlink:href="#DejaVuSans-75"/>
      <use xlink:href="#DejaVuSans-6e" transform="translate(63.378906 0)"/>
      <use xlink:href="#DejaVuSans-64" transform="translate(126.757812 0)"/>
      <use xlink:href="#DejaVuSans-2e" transform="translate(190.234375 0)"/>
      <use xlink:href="#DejaVuSans-20" transform="translate(222.021484 0)"/>
      <use xlink:href="#DejaVuSans-75" transform="translate(253.808594 0)"/>
      <use xlink:href="#DejaVuSans-6e" transform="translate(317.1875 0)"/>
      <use xlink:href="#DejaVuSans-63" transform="translate(380.566406 0)"/>
      <use xlink:href="#DejaVuSans-6c" transform="translate(435.546875 0)"/>
      <use xlink:href="#DejaVuSans-2e" transform="translate(463.330078 0)"/>
      <use xlink:href="#DejaVuSans-20" transform="translate(495.117188 0)"/>
      <use xlink:href="#DejaVuSans-4d" transform="translate(526.904297 0)"/>
      <use xlink:href="#DejaVuSans-6f" transform="translate(613.183594 0)"/>
      <use xlink:href="#DejaVuSans-6c" transform="translate(674.365234 0)"/>
      <use xlink:href="#DejaVuSans-6c" transform="translate(702.148438 0)"/>
      <use xlink:href="#DejaVuSans-69" transform="translate(729.931641 0)"/>
      <use xlink:href="#DejaVuSans-63" transform="translate(757.714844 0)"/>
      <use xlink:href="#DejaVuSans-75" transform="translate(812.695312 0)"/>
      <use xlink:href="#DejaVuSans-74" transform="translate(876.074219 0)"/>
      <use xlink:href="#DejaVuSans-65" transform="translate(915.283203 0)"/>
      <use xlink:href="#DejaVuSans-73" transform="translate(976.806641 0)"/>
     </g>
    </g>
   </g>
   <g id="text_4">
    <g clip-path="url(#pc7bdd20692)">
     <!-- und. Lachnospiraceae -->
     <g transform="translate(11.669613 137.495311) scale(0.08 -0.08)">
      <defs>
       <path id="DejaVuSans-4c" d="M 628 4666 
L 1259 4666 
L 1259 531 
L 3531 531 
L 3531 0 
L 628 0 
L 628 4666 
z
" transform="scale(0.015625)"/>
       <path id="DejaVuSans-68" d="M 3513 2113 
L 3513 0 
L 2938 0 
L 2938 2094 
Q 2938 2591 2744 2837 
Q 2550 3084 2163 3084 
Q 1697 3084 1428 2787 
Q 1159 2491 1159 1978 
L 1159 0 
L 581 0 
L 581 4863 
L 1159 4863 
L 1159 2956 
Q 1366 3272 1645 3428 
Q 1925 3584 2291 3584 
Q 2894 3584 3203 3211 
Q 3513 2838 3513 2113 
z
" transform="scale(0.015625)"/>
       <path id="DejaVuSans-70" d="M 1159 525 
L 1159 -1331 
L 581 -1331 
L 581 3500 
L 1159 3500 
L 1159 2969 
Q 1341 3281 1617 3432 
Q 1894 3584 2278 3584 
Q 2916 3584 3314 3078 
Q 3713 2572 3713 1747 
Q 3713 922 3314 415 
Q 2916 -91 2278 -91 
Q 1894 -91 1617 61 
Q 1341 213 1159 525 
z
M 3116 1747 
Q 3116 2381 2855 2742 
Q 2594 3103 2138 3103 
Q 1681 3103 1420 2742 
Q 1159 2381 1159 1747 
Q 1159 1113 1420 752 
Q 1681 391 2138 391 
Q 2594 391 2855 752 
Q 3116 1113 3116 1747 
z
" transform="scale(0.015625)"/>
      </defs>
      <use xlink:href="#DejaVuSans-75"/>
      <use xlink:href="#DejaVuSans-6e" transform="translate(63.378906 0)"/>
      <use xlink:href="#DejaVuSans-64" transform="translate(126.757812 0)"/>
      <use xlink:href="#DejaVuSans-2e" transform="translate(190.234375 0)"/>
      <use xlink:href="#DejaVuSans-20" transform="translate(222.021484 0)"/>
      <use xlink:href="#DejaVuSans-4c" transform="translate(253.808594 0)"/>
      <use xlink:href="#DejaVuSans-61" transform="translate(309.521484 0)"/>
      <use xlink:href="#DejaVuSans-63" transform="translate(370.800781 0)"/>
      <use xlink:href="#DejaVuSans-68" transform="translate(425.78125 0)"/>
      <use xlink:href="#DejaVuSans-6e" transform="translate(489.160156 0)"/>
      <use xlink:href="#DejaVuSans-6f" transform="translate(552.539062 0)"/>
      <use xlink:href="#DejaVuSans-73" transform="translate(613.720703 0)"/>
      <use xlink:href="#DejaVuSans-70" transform="translate(665.820312 0)"/>
      <use xlink:href="#DejaVuSans-69" transform="translate(729.296875 0)"/>
      <use xlink:href="#DejaVuSans-72" transform="translate(757.080078 0)"/>
      <use xlink:href="#DejaVuSans-61" transform="translate(798.193359 0)"/>
      <use xlink:href="#DejaVuSans-63" transform="translate(859.472656 0)"/>
      <use xlink:href="#DejaVuSans-65" transform="translate(914.453125 0)"/>
      <use xlink:href="#DejaVuSans-61" transform="translate(975.976562 0)"/>
      <use xlink:href="#DejaVuSans-65" transform="translate(1037.255859 0)"/>
     </g>
    </g>
   </g>
   <g id="text_5">
    <g clip-path="url(#pc7bdd20692)">
     <!-- Akkermansia -->
     <g transform="translate(68.390529 91.59404) scale(0.08 -0.08)">
      <defs>
       <path id="DejaVuSans-41" d="M 2188 4044 
L 1331 1722 
L 3047 1722 
L 2188 4044 
z
M 1831 4666 
L 2547 4666 
L 4325 0 
L 3669 0 
L 3244 1197 
L 1141 1197 
L 716 0 
L 50 0 
L 1831 4666 
z
" transform="scale(0.015625)"/>
       <path id="DejaVuSans-6b" d="M 581 4863 
L 1159 4863 
L 1159 1991 
L 2875 3500 
L 3609 3500 
L 1753 1863 
L 3688 0 
L 2938 0 
L 1159 1709 
L 1159 0 
L 581 0 
L 581 4863 
z
" transform="scale(0.015625)"/>
       <path id="DejaVuSans-6d" d="M 3328 2828 
Q 3544 3216 3844 3400 
Q 4144 3584 4550 3584 
Q 5097 3584 5394 3201 
Q 5691 2819 5691 2113 
L 5691 0 
L 5113 0 
L 5113 2094 
Q 5113 2597 4934 2840 
Q 4756 3084 4391 3084 
Q 3944 3084 3684 2787 
Q 3425 2491 3425 1978 
L 3425 0 
L 2847 0 
L 2847 2094 
Q 2847 2600 2669 2842 
Q 2491 3084 2119 3084 
Q 1678 3084 1418 2786 
Q 1159 2488 1159 1978 
L 1159 0 
L 581 0 
L 581 3500 
L 1159 3500 
L 1159 2956 
Q 1356 3278 1631 3431 
Q 1906 3584 2284 3584 
Q 2666 3584 2933 3390 
Q 3200 3197 3328 2828 
z
" transform="scale(0.015625)"/>
      </defs>
      <use xlink:href="#DejaVuSans-41"/>
      <use xlink:href="#DejaVuSans-6b" transform="translate(68.408203 0)"/>
      <use xlink:href="#DejaVuSans-6b" transform="translate(126.318359 0)"/>
      <use xlink:href="#DejaVuSans-65" transform="translate(180.603516 0)"/>
      <use xlink:href="#DejaVuSans-72" transform="translate(242.126953 0)"/>
      <use xlink:href="#DejaVuSans-6d" transform="translate(281.490234 0)"/>
      <use xlink:href="#DejaVuSans-61" transform="translate(378.902344 0)"/>
      <use xlink:href="#DejaVuSans-6e" transform="translate(440.181641 0)"/>
      <use xlink:href="#DejaVuSans-73" transform="translate(503.560547 0)"/>
      <use xlink:href="#DejaVuSans-69" transform="translate(555.660156 0)"/>
      <use xlink:href="#DejaVuSans-61" transform="translate(583.443359 0)"/>
     </g>
    </g>
   </g>
   <g id="text_6">
    <g clip-path="url(#pc7bdd20692)">
     <!-- Clostridium_difficile -->
     <g transform="translate(275.82867 230.820818) scale(0.08 -0.08)">
      <defs>
       <path id="DejaVuSans-43" d="M 4122 4306 
L 4122 3641 
Q 3803 3938 3442 4084 
Q 3081 4231 2675 4231 
Q 1875 4231 1450 3742 
Q 1025 3253 1025 2328 
Q 1025 1406 1450 917 
Q 1875 428 2675 428 
Q 3081 428 3442 575 
Q 3803 722 4122 1019 
L 4122 359 
Q 3791 134 3420 21 
Q 3050 -91 2638 -91 
Q 1578 -91 968 557 
Q 359 1206 359 2328 
Q 359 3453 968 4101 
Q 1578 4750 2638 4750 
Q 3056 4750 3426 4639 
Q 3797 4528 4122 4306 
z
" transform="scale(0.015625)"/>
       <path id="DejaVuSans-5f" d="M 3263 -1063 
L 3263 -1509 
L -63 -1509 
L -63 -1063 
L 3263 -1063 
z
" transform="scale(0.015625)"/>
       <path id="DejaVuSans-66" d="M 2375 4863 
L 2375 4384 
L 1825 4384 
Q 1516 4384 1395 4259 
Q 1275 4134 1275 3809 
L 1275 3500 
L 2222 3500 
L 2222 3053 
L 1275 3053 
L 1275 0 
L 697 0 
L 697 3053 
L 147 3053 
L 147 3500 
L 697 3500 
L 697 3744 
Q 697 4328 969 4595 
Q 1241 4863 1831 4863 
L 2375 4863 
z
" transform="scale(0.015625)"/>
      </defs>
      <use xlink:href="#DejaVuSans-43"/>
      <use xlink:href="#DejaVuSans-6c" transform="translate(69.824219 0)"/>
      <use xlink:href="#DejaVuSans-6f" transform="translate(97.607422 0)"/>
      <use xlink:href="#DejaVuSans-73" transform="translate(158.789062 0)"/>
      <use xlink:href="#DejaVuSans-74" transform="translate(210.888672 0)"/>
      <use xlink:href="#DejaVuSans-72" transform="translate(250.097656 0)"/>
      <use xlink:href="#DejaVuSans-69" transform="translate(291.210938 0)"/>
      <use xlink:href="#DejaVuSans-64" transform="translate(318.994141 0)"/>
      <use xlink:href="#DejaVuSans-69" transform="translate(382.470703 0)"/>
      <use xlink:href="#DejaVuSans-75" transform="translate(410.253906 0)"/>
      <use xlink:href="#DejaVuSans-6d" transform="translate(473.632812 0)"/>
      <use xlink:href="#DejaVuSans-5f" transform="translate(571.044922 0)"/>
      <use xlink:href="#DejaVuSans-64" transform="translate(621.044922 0)"/>
      <use xlink:href="#DejaVuSans-69" transform="translate(684.521484 0)"/>
      <use xlink:href="#DejaVuSans-66" transform="translate(712.304688 0)"/>
      <use xlink:href="#DejaVuSans-66" transform="translate(747.509766 0)"/>
      <use xlink:href="#DejaVuSans-69" transform="translate(782.714844 0)"/>
      <use xlink:href="#DejaVuSans-63" transform="translate(810.498047 0)"/>
      <use xlink:href="#DejaVuSans-69" transform="translate(865.478516 0)"/>
      <use xlink:href="#DejaVuSans-6c" transform="translate(893.261719 0)"/>
      <use xlink:href="#DejaVuSans-65" transform="translate(921.044922 0)"/>
     </g>
    </g>
   </g>
   <g id="text_7">
    <g clip-path="url(#pc7bdd20692)">
     <!-- ucl. Lachnospiraceae -->
     <g transform="translate(474.590387 176.713517) scale(0.08 -0.08)">
      <use xlink:href="#DejaVuSans-75"/>
      <use xlink:href="#DejaVuSans-63" transform="translate(63.378906 0)"/>
      <use xlink:href="#DejaVuSans-6c" transform="translate(118.359375 0)"/>
      <use xlink:href="#DejaVuSans-2e" transform="translate(146.142578 0)"/>
      <use xlink:href="#DejaVuSans-20" transform="translate(177.929688 0)"/>
      <use xlink:href="#DejaVuSans-4c" transform="translate(209.716797 0)"/>
      <use xlink:href="#DejaVuSans-61" transform="translate(265.429688 0)"/>
      <use xlink:href="#DejaVuSans-63" transform="translate(326.708984 0)"/>
      <use xlink:href="#DejaVuSans-68" transform="translate(381.689453 0)"/>
      <use xlink:href="#DejaVuSans-6e" transform="translate(445.068359 0)"/>
      <use xlink:href="#DejaVuSans-6f" transform="translate(508.447266 0)"/>
      <use xlink:href="#DejaVuSans-73" transform="translate(569.628906 0)"/>
      <use xlink:href="#DejaVuSans-70" transform="translate(621.728516 0)"/>
      <use xlink:href="#DejaVuSans-69" transform="translate(685.205078 0)"/>
      <use xlink:href="#DejaVuSans-72" transform="translate(712.988281 0)"/>
      <use xlink:href="#DejaVuSans-61" transform="translate(754.101562 0)"/>
      <use xlink:href="#DejaVuSans-63" transform="translate(815.380859 0)"/>
      <use xlink:href="#DejaVuSans-65" transform="translate(870.361328 0)"/>
      <use xlink:href="#DejaVuSans-61" transform="translate(931.884766 0)"/>
      <use xlink:href="#DejaVuSans-65" transform="translate(993.164062 0)"/>
     </g>
    </g>
   </g>
   <g id="text_8">
    <g clip-path="url(#pc7bdd20692)">
     <!-- Coprobacillus -->
     <g transform="translate(47.523295 405.396153) scale(0.08 -0.08)">
      <use xlink:href="#DejaVuSans-43"/>
      <use xlink:href="#DejaVuSans-6f" transform="translate(69.824219 0)"/>
      <use xlink:href="#DejaVuSans-70" transform="translate(131.005859 0)"/>
      <use xlink:href="#DejaVuSans-72" transform="translate(194.482422 0)"/>
      <use xlink:href="#DejaVuSans-6f" transform="translate(233.345703 0)"/>
      <use xlink:href="#DejaVuSans-62" transform="translate(294.527344 0)"/>
      <use xlink:href="#DejaVuSans-61" transform="translate(358.003906 0)"/>
      <use xlink:href="#DejaVuSans-63" transform="translate(419.283203 0)"/>
      <use xlink:href="#DejaVuSans-69" transform="translate(474.263672 0)"/>
      <use xlink:href="#DejaVuSans-6c" transform="translate(502.046875 0)"/>
      <use xlink:href="#DejaVuSans-6c" transform="translate(529.830078 0)"/>
      <use xlink:href="#DejaVuSans-75" transform="translate(557.613281 0)"/>
      <use xlink:href="#DejaVuSans-73" transform="translate(620.992188 0)"/>
     </g>
    </g>
   </g>
   <g id="text_9">
    <g clip-path="url(#pc7bdd20692)">
     <!-- Other -->
     <g transform="translate(351.882796 48.321853) scale(0.08 -0.08)">
      <defs>
       <path id="DejaVuSans-4f" d="M 2522 4238 
Q 1834 4238 1429 3725 
Q 1025 3213 1025 2328 
Q 1025 1447 1429 934 
Q 1834 422 2522 422 
Q 3209 422 3611 934 
Q 4013 1447 4013 2328 
Q 4013 3213 3611 3725 
Q 3209 4238 2522 4238 
z
M 2522 4750 
Q 3503 4750 4090 4092 
Q 4678 3434 4678 2328 
Q 4678 1225 4090 567 
Q 3503 -91 2522 -91 
Q 1538 -91 948 565 
Q 359 1222 359 2328 
Q 359 3434 948 4092 
Q 1538 4750 2522 4750 
z
" transform="scale(0.015625)"/>
      </defs>
      <use xlink:href="#DejaVuSans-4f"/>
      <use xlink:href="#DejaVuSans-74" transform="translate(78.710938 0)"/>
      <use xlink:href="#DejaVuSans-68" transform="translate(117.919922 0)"/>
      <use xlink:href="#DejaVuSans-65" transform="translate(181.298828 0)"/>
      <use xlink:href="#DejaVuSans-72" transform="translate(242.822266 0)"/>
     </g>
    </g>
   </g>
   <g id="text_10">
    <g clip-path="url(#pc7bdd20692)">
     <!-- Blautia -->
     <g transform="translate(378.812232 414.440227) scale(0.08 -0.08)">
      <use xlink:href="#DejaVuSans-42"/>
      <use xlink:href="#DejaVuSans-6c" transform="translate(68.603516 0)"/>
      <use xlink:href="#DejaVuSans-61" transform="translate(96.386719 0)"/>
      <use xlink:href="#DejaVuSans-75" transform="translate(157.666016 0)"/>
      <use xlink:href="#DejaVuSans-74" transform="translate(221.044922 0)"/>
      <use xlink:href="#DejaVuSans-69" transform="translate(260.253906 0)"/>
      <use xlink:href="#DejaVuSans-61" transform="translate(288.037109 0)"/>
     </g>
    </g>
   </g>
   <g id="text_11">
    <g clip-path="url(#pc7bdd20692)">
     <!-- Enterococcus -->
     <g transform="translate(430.356804 125.82653) scale(0.08 -0.08)">
      <use xlink:href="#DejaVuSans-45"/>
      <use xlink:href="#DejaVuSans-6e" transform="translate(63.183594 0)"/>
      <use xlink:href="#DejaVuSans-74" transform="translate(126.5625 0)"/>
      <use xlink:href="#DejaVuSans-65" transform="translate(165.771484 0)"/>
      <use xlink:href="#DejaVuSans-72" transform="translate(227.294922 0)"/>
      <use xlink:href="#DejaVuSans-6f" transform="translate(266.158203 0)"/>
      <use xlink:href="#DejaVuSans-63" transform="translate(327.339844 0)"/>
      <use xlink:href="#DejaVuSans-6f" transform="translate(382.320312 0)"/>
      <use xlink:href="#DejaVuSans-63" transform="translate(443.501953 0)"/>
      <use xlink:href="#DejaVuSans-63" transform="translate(498.482422 0)"/>
      <use xlink:href="#DejaVuSans-75" transform="translate(553.462891 0)"/>
      <use xlink:href="#DejaVuSans-73" transform="translate(616.841797 0)"/>
     </g>
    </g>
   </g>
  </g>
 </g>
 <defs>
  <clipPath id="pc7bdd20692">
   <rect x="7.2" y="7.2" width="558" height="443.52"/>
  </clipPath>
 </defs>
</svg>
